<svg width="18" height="18" viewBox="0 0 18 18" fill="none" xmlns="http://www.w3.org/2000/svg">
<g clip-path="url(#clip0_4_595)">
<path d="M13.4992 0.00374516L11.165 0C8.54265 0 6.84797 1.73869 6.84797 4.42978V6.4722H4.50106C4.29826 6.4722 4.13403 6.63661 4.13403 6.83942V9.79865C4.13403 10.0015 4.29845 10.1657 4.50106 10.1657H6.84797V17.6328C6.84797 17.8356 7.01219 17.9998 7.21499 17.9998H10.277C10.4798 17.9998 10.6441 17.8354 10.6441 17.6328V10.1657H13.3881C13.5909 10.1657 13.7552 10.0015 13.7552 9.79865L13.7563 6.83942C13.7563 6.74204 13.7175 6.64879 13.6488 6.57988C13.5801 6.51096 13.4865 6.4722 13.3891 6.4722H10.6441V4.74081C10.6441 3.90864 10.8424 3.48618 11.9264 3.48618L13.4988 3.48562C13.7014 3.48562 13.8657 3.32121 13.8657 3.1186V0.370771C13.8657 0.168345 13.7016 0.00411968 13.4992 0.00374516Z" fill="#9D8AE6"/>
</g>
<defs>
<clipPath id="clip0_4_595">
<rect width="18" height="17.9998" fill="white"/>
</clipPath>
</defs>
</svg>
