<svg width="10" height="19" viewBox="0 0 10 19" fill="none" xmlns="http://www.w3.org/2000/svg">
<path d="M9.49919 0.931468L7.16501 0.927734C4.54265 0.927734 2.84797 2.66126 2.84797 5.34434V7.38069H0.501059C0.298259 7.38069 0.134033 7.54461 0.134033 7.74681V10.6973C0.134033 10.8995 0.298446 11.0632 0.501059 11.0632H2.84797V18.5081C2.84797 18.7103 3.01219 18.874 3.21499 18.874H6.27704C6.47984 18.874 6.64406 18.7101 6.64406 18.5081V11.0632H9.38814C9.59094 11.0632 9.75517 10.8995 9.75517 10.6973L9.75629 7.74681C9.75629 7.64973 9.71753 7.55675 9.64881 7.48804C9.58008 7.41934 9.48645 7.38069 9.38908 7.38069H6.64406V5.65445C6.64406 4.82475 6.84237 4.40355 7.92641 4.40355L9.49881 4.40299C9.70142 4.40299 9.86565 4.23907 9.86565 4.03706V1.2974C9.86565 1.09558 9.70161 0.931842 9.49919 0.931468Z" fill="white"/>
</svg>
