<svg width="124" height="78" viewBox="0 0 124 78" fill="none" xmlns="http://www.w3.org/2000/svg">
<path d="M85.8735 74.6285C85.6939 74.4659 85.4927 74.3287 85.2757 74.2209C85.1521 74.1488 85.0356 74.0651 84.9278 73.9709C84.8596 73.9043 84.8128 73.8188 84.7934 73.7255C84.7741 73.6321 84.7831 73.535 84.8193 73.4468C84.8555 73.3586 84.9173 73.2832 84.9967 73.2304C85.0761 73.1775 85.1695 73.1496 85.2648 73.1502C85.3249 73.1467 85.3851 73.156 85.4413 73.1776C85.4976 73.1991 85.5486 73.2324 85.5909 73.2752C85.6824 73.38 85.7377 73.5115 85.7485 73.6502L86.004 73.547C86.0032 73.4596 85.985 73.3733 85.9505 73.293C85.9159 73.2128 85.8658 73.1402 85.8029 73.0796C85.6576 72.9375 85.4626 72.8579 85.2594 72.8579C85.0562 72.8579 84.8611 72.9375 84.7159 73.0796C84.5725 73.2241 84.492 73.4195 84.492 73.6231C84.492 73.8267 84.5725 74.022 84.7159 74.1666C84.8807 74.3062 85.0635 74.4232 85.2594 74.5144C85.4085 74.6065 85.5502 74.7101 85.6833 74.8242C85.746 74.8847 85.7956 74.9574 85.8293 75.0378C85.8629 75.1181 85.8798 75.2045 85.879 75.2916C85.879 75.4685 85.8095 75.6383 85.6854 75.7643C85.5614 75.8904 85.3927 75.9627 85.2159 75.9655C85.1281 75.9656 85.0411 75.9483 84.96 75.9147C84.8789 75.8812 84.8052 75.832 84.7431 75.7699C84.618 75.6398 84.548 75.4666 84.5474 75.2862L84.2539 75.3568C84.2563 75.4739 84.2826 75.5893 84.3312 75.6958C84.3798 75.8024 84.4497 75.8979 84.5365 75.9764C84.6254 76.0653 84.7308 76.1358 84.847 76.184C84.9631 76.2321 85.0875 76.2569 85.2132 76.2569C85.3389 76.2569 85.4633 76.2321 85.5794 76.184C85.6955 76.1358 85.801 76.0653 85.8898 75.9764C86.0643 75.7944 86.1603 75.5512 86.1572 75.2991C86.1542 75.0471 86.0523 74.8063 85.8735 74.6285Z" fill="white"/>
<path d="M48.948 70.9219C48.3188 70.9217 47.7091 71.14 47.2228 71.5393C46.7366 71.9386 46.404 72.4943 46.2817 73.1115C46.1595 73.7288 46.2553 74.3693 46.5527 74.9238C46.8501 75.4783 47.3307 75.9124 47.9124 76.152C48.4942 76.3917 49.1411 76.422 49.7428 76.2379C50.3445 76.0537 50.8636 75.6665 51.2116 75.1423C51.5596 74.6181 51.7149 73.9893 51.651 73.3634C51.587 72.7374 51.3079 72.153 50.8612 71.7099C50.6139 71.4537 50.3163 71.2515 49.987 71.1159C49.6578 70.9802 49.304 70.9142 48.948 70.9219ZM50.6438 75.3188C50.3625 75.5907 50.019 75.7897 49.6432 75.8983C49.2674 76.0069 48.8707 76.0219 48.4877 75.9419C48.1048 75.862 47.7472 75.6895 47.4463 75.4395C47.1453 75.1896 46.9102 74.8698 46.7613 74.508C46.6124 74.1462 46.5543 73.7535 46.592 73.3642C46.6298 72.9748 46.7624 72.6006 46.9781 72.2742C47.1937 71.9478 47.486 71.6792 47.8294 71.4918C48.1728 71.3044 48.5569 71.2039 48.948 71.199C49.2649 71.1935 49.5796 71.2534 49.8723 71.375C50.165 71.4965 50.4295 71.6772 50.6492 71.9056C50.875 72.1289 51.0541 72.3949 51.1762 72.6881C51.2983 72.9813 51.3609 73.2958 51.3604 73.6133C51.3599 73.9309 51.2962 74.2452 51.1732 74.538C51.0502 74.8308 50.8702 75.0962 50.6438 75.3188Z" fill="white"/>
<path d="M42.6707 75.2858L41.6055 73.0303H41.2739L42.5022 75.6663L41.6489 77.4924H41.9805L44.0675 73.0303H43.736L42.6707 75.2858Z" fill="white"/>
<path d="M76.7806 73.2643C76.4405 73.6038 76.249 74.0645 76.2485 74.5451C76.248 75.0257 76.4385 75.4868 76.7779 75.827C77.1174 76.1671 77.5781 76.3585 78.0587 76.359C78.5392 76.3596 79.0003 76.1691 79.3405 75.8297C79.4283 75.7501 79.5068 75.6608 79.5742 75.5634L79.259 75.4492C79.2101 75.5036 79.1666 75.5579 79.1177 75.6068C78.9789 75.7457 78.8141 75.8559 78.6327 75.931C78.4513 76.0062 78.2569 76.0449 78.0606 76.0449C77.8642 76.0449 77.6698 76.0062 77.4884 75.931C77.3071 75.8559 77.1423 75.7457 77.0035 75.6068C76.8598 75.4653 76.7467 75.2958 76.6709 75.1089C76.5952 74.9219 76.5586 74.7215 76.5632 74.5198C76.5632 74.4655 76.5632 74.4111 76.5632 74.3568H79.7971C79.7981 74.1492 79.7572 73.9435 79.6769 73.7521C79.5966 73.5606 79.4785 73.3873 79.3297 73.2426C78.9878 72.9093 78.5281 72.7245 78.0507 72.7286C77.5732 72.7327 77.1167 72.9252 76.7806 73.2643ZM76.6339 74.0796C76.7088 73.8574 76.8355 73.6562 77.0035 73.4926C77.1423 73.3538 77.3071 73.2436 77.4884 73.1684C77.6698 73.0933 77.8642 73.0546 78.0606 73.0546C78.2569 73.0546 78.4513 73.0933 78.6327 73.1684C78.8141 73.2436 78.9789 73.3538 79.1177 73.4926C79.2809 73.657 79.4021 73.8584 79.471 74.0796H76.6339Z" fill="white"/>
<path d="M74.4597 72.8295H74.3945C74.2274 72.8265 74.0614 72.8572 73.9063 72.9198C73.7513 72.9824 73.6105 73.0755 73.4923 73.1937V70.9871H73.1934V76.259H73.4923V73.6883C73.5398 73.5861 73.6061 73.4939 73.6879 73.4165C73.8761 73.2306 74.13 73.1264 74.3945 73.1264C74.659 73.1264 74.9129 73.2306 75.1011 73.4165C75.1957 73.5079 75.2706 73.6178 75.3211 73.7394C75.3715 73.8609 75.3966 73.9915 75.3946 74.1231V76.259H75.6935V74.085C75.6949 73.9216 75.6641 73.7594 75.6029 73.6079C75.5417 73.4563 75.4512 73.3183 75.3366 73.2017C75.2221 73.0852 75.0857 72.9923 74.9352 72.9284C74.7847 72.8646 74.6232 72.831 74.4597 72.8295Z" fill="white"/>
<path d="M53.834 73.0305H53.4536H53.4481L52.5514 74.1392V71.6554H52.2524V76.2643H52.5514V74.612L52.8394 74.2533L53.9373 76.2643H54.3069L53.0351 74.0196L53.834 73.0305Z" fill="white"/>
<path d="M37.8551 73.2695C37.7878 73.335 37.726 73.4059 37.6703 73.4814V70.9922H37.3713V76.2642H37.6703V75.6065C37.7259 75.6838 37.7877 75.7565 37.8551 75.8239C38.1079 76.0777 38.4304 76.2508 38.7816 76.3212C39.1329 76.3917 39.4972 76.3562 39.8283 76.2195C40.1594 76.0827 40.4425 75.8507 40.6417 75.5529C40.8409 75.2552 40.9472 74.905 40.9472 74.5467C40.9472 74.1884 40.8409 73.8382 40.6417 73.5404C40.4425 73.2427 40.1594 73.0107 39.8283 72.8739C39.4972 72.7371 39.1329 72.7017 38.7816 72.7721C38.4304 72.8426 38.1079 73.0156 37.8551 73.2695ZM40.2193 75.6011C40.0805 75.74 39.9157 75.8501 39.7343 75.9253C39.5529 76.0004 39.3585 76.0391 39.1622 76.0391C38.9658 76.0391 38.7714 76.0004 38.59 75.9253C38.4087 75.8501 38.2439 75.74 38.1051 75.6011C37.8938 75.4023 37.751 75.1416 37.6974 74.8565V74.2423C37.7507 73.9555 37.8934 73.693 38.1051 73.4923C38.241 73.3429 38.4059 73.2225 38.5897 73.1386C38.7735 73.0547 38.9724 73.0089 39.1744 73.004C39.3763 72.9991 39.5772 73.0352 39.7649 73.1102C39.9525 73.1851 40.123 73.2973 40.266 73.44C40.4091 73.5827 40.5217 73.7529 40.5971 73.9403C40.6726 74.1278 40.7092 74.3285 40.7048 74.5305C40.7004 74.7325 40.6552 74.9315 40.5717 75.1155C40.4883 75.2995 40.3684 75.4647 40.2193 75.6011Z" fill="white"/>
<path d="M83.6831 73.0303L82.8298 75.688L82.0689 73.5792H81.9005L81.1395 75.688L80.2863 73.0303H79.9438L81.0417 76.2641H81.232L81.982 74.1553L82.7374 76.2641H82.9222L84.0256 73.0303H83.6831Z" fill="white"/>
<path d="M70.378 73.4869C70.3207 73.4109 70.259 73.3383 70.1932 73.2695C69.9401 73.0165 69.6176 72.8442 69.2665 72.7744C68.9155 72.7046 68.5516 72.7404 68.2209 72.8774C67.8902 73.0144 67.6076 73.2464 67.4087 73.544C67.2099 73.8417 67.1038 74.1915 67.1038 74.5495C67.1038 74.9074 67.2099 75.2573 67.4087 75.5549C67.6076 75.8526 67.8902 76.0845 68.2209 76.2215C68.5516 76.3585 68.9155 76.3944 69.2665 76.3246C69.6176 76.2548 69.9401 76.0825 70.1932 75.8294C70.2584 75.7588 70.3182 75.6881 70.378 75.612V76.2697H70.6552V73.0358H70.3563L70.378 73.4869ZM70.378 74.8403C70.3216 75.1303 70.1774 75.3959 69.9649 75.6012C69.7568 75.8098 69.4915 75.952 69.2025 76.0098C68.9135 76.0676 68.6139 76.0383 68.3416 75.9257C68.0692 75.8131 67.8364 75.6222 67.6726 75.3772C67.5088 75.1323 67.4214 74.8442 67.4214 74.5495C67.4214 74.2548 67.5088 73.9667 67.6726 73.7217C67.8364 73.4768 68.0692 73.2859 68.3416 73.1733C68.6139 73.0607 68.9135 73.0314 69.2025 73.0892C69.4915 73.147 69.7568 73.2892 69.9649 73.4978C70.1707 73.7051 70.3123 73.9674 70.3726 74.2533L70.378 74.8403Z" fill="white"/>
<path d="M72.0793 71.6554H71.7858V73.0305H71.1282V73.3294H71.7858V76.2643H72.0793V73.3294H72.7424V73.0305H72.0793V71.6554Z" fill="white"/>
<path d="M58.1006 75.2858L57.0408 73.0303H56.7092L57.9375 75.6663L57.0842 77.4924H57.4158L59.5028 73.0303H59.1713L58.1006 75.2858Z" fill="white"/>
<path d="M55.4919 74.2208C55.3701 74.1486 55.2554 74.0649 55.1495 73.9708C55.0813 73.9042 55.0344 73.8188 55.0151 73.7254C54.9958 73.632 55.0048 73.535 55.041 73.4467C55.0772 73.3585 55.139 73.2831 55.2184 73.2303C55.2978 73.1774 55.3911 73.1495 55.4865 73.1501C55.5465 73.1473 55.6065 73.1569 55.6627 73.1784C55.7188 73.2 55.7698 73.2329 55.8126 73.2751C55.9028 73.3802 55.9562 73.5119 55.9648 73.6501L56.2257 73.5469C56.2251 73.459 56.2065 73.3721 56.171 73.2917C56.1354 73.2113 56.0838 73.1391 56.0191 73.0795C55.9482 73.0083 55.8633 72.9527 55.7697 72.9162C55.6761 72.8797 55.576 72.8631 55.4756 72.8675C55.3743 72.8666 55.2738 72.8863 55.1803 72.9256C55.0869 72.9648 55.0024 73.0227 54.9321 73.0958C54.7887 73.2403 54.7083 73.4357 54.7083 73.6393C54.7083 73.8429 54.7887 74.0382 54.9321 74.1828C55.0965 74.3231 55.2794 74.4401 55.4756 74.5306C55.6256 74.6214 55.7675 74.7251 55.8996 74.8404C55.9629 74.9007 56.0134 74.9732 56.048 75.0535C56.0826 75.1339 56.1005 75.2204 56.1007 75.3078C56.1014 75.3949 56.0849 75.4813 56.0523 75.562C56.0196 75.6427 55.9714 75.7162 55.9103 75.7783C55.8492 75.8404 55.7765 75.8898 55.6964 75.9238C55.6162 75.9578 55.5301 75.9756 55.443 75.9763C55.3543 75.9771 55.2663 75.9601 55.1843 75.9265C55.1022 75.8929 55.0276 75.8433 54.9649 75.7805C54.9021 75.7178 54.8525 75.6432 54.8189 75.5611C54.7853 75.4791 54.7683 75.3911 54.7691 75.3024L54.4756 75.373C54.4769 75.4898 54.5022 75.605 54.5499 75.7116C54.5976 75.8182 54.6666 75.9138 54.7528 75.9926C54.9331 76.1725 55.1774 76.2735 55.4321 76.2735C55.6869 76.2735 55.9312 76.1725 56.1115 75.9926C56.2888 75.8109 56.388 75.5671 56.388 75.3133C56.388 75.0594 56.2888 74.8156 56.1115 74.6339C55.9253 74.468 55.7167 74.3289 55.4919 74.2208Z" fill="white"/>
<path d="M64.1388 73.4923L62.2311 70.9922H61.8018V76.2642H62.1007V71.3129L64.1388 73.9869L66.1824 71.3129V76.2642H66.4759V70.9922H66.0465L64.1388 73.4923Z" fill="white"/>
<path fill-rule="evenodd" clip-rule="evenodd" d="M82.819 59.6278C82.781 59.8234 82.7375 60.0191 82.6995 60.2202C82.5147 61.1333 82.2864 62.0681 82.0038 63.0138C81.748 63.92 81.3616 64.7842 80.857 65.5791C80.3135 66.3889 79.8189 66.6661 79.4493 66.4379C78.9994 66.0597 78.7131 65.5222 78.6504 64.9378C78.4004 63.5978 78.2551 62.2404 78.2156 60.8778C78.1503 59.2763 78.134 57.7925 78.1667 56.4265C78.1625 55.5546 78.2134 54.6833 78.3188 53.8177C78.3529 53.6796 78.3498 53.5348 78.3097 53.3983C78.2696 53.2618 78.194 53.1383 78.0906 53.0405C77.9995 52.9572 77.8898 52.897 77.7706 52.8648C77.6515 52.8326 77.5264 52.8295 77.4057 52.8557C77.2685 52.8895 77.144 52.9624 77.0475 53.0657C76.951 53.169 76.8866 53.2981 76.8622 53.4373C76.8622 53.5079 76.8188 53.5895 76.797 53.6764C76.6464 53.2602 76.3964 52.887 76.0687 52.5894C75.8853 52.4147 75.6717 52.2748 75.4383 52.1764C74.8701 51.9662 74.2455 51.9662 73.6773 52.1764C73.0808 52.3858 72.5213 52.6884 72.0196 53.0731C71.0089 53.9495 70.243 55.0731 69.7967 56.3342C69.4333 57.2966 69.2029 58.3041 69.1119 59.3289L69.063 59.3995C68.7423 59.9811 68.3891 60.6006 68.014 61.2692C67.5358 62.1551 67.0683 63.0029 66.6009 63.8127C66.225 64.4813 65.8131 65.129 65.3672 65.753C65.0139 66.2368 64.7585 66.427 64.6063 66.2965C64.4541 66.1661 64.4541 65.6661 64.6063 64.715C64.7585 63.7638 65.0356 62.5736 65.3509 61.3344C65.6661 60.0952 65.9542 58.8125 66.1879 57.5625C66.4124 56.4615 66.4801 55.3344 66.389 54.2145C66.2477 53.209 65.9542 52.5514 65.5194 52.2361C65.3025 52.083 65.0515 51.9851 64.7882 51.951C64.5248 51.9169 64.2572 51.9476 64.0084 52.0405C63.3826 52.2514 62.8084 52.5922 62.3236 53.0405C61.4369 53.8711 60.6672 54.8182 60.0354 55.8559C59.3905 56.9175 58.9267 57.7454 58.6441 58.3397C58.5734 58.4592 58.5136 58.5625 58.4756 58.644C58.2799 59.0082 58.1006 59.3778 57.9321 59.731L57.981 59.106C58.0571 58.2473 58.1332 57.5625 58.2093 57.0516C58.2295 56.92 58.2157 56.7855 58.1691 56.6608C58.1225 56.5361 58.0446 56.4255 57.9429 56.3396C57.8524 56.2576 57.743 56.1992 57.6245 56.1698C57.5059 56.1404 57.3819 56.1409 57.2636 56.1711C57.019 56.2907 56.8179 56.7961 56.6548 57.6875C56.5461 58.3179 56.4537 58.9593 56.394 59.6006C54.5569 63.4558 53.3195 65.7059 52.6818 66.3509C52.3666 66.6879 52.1818 66.5792 52.1383 66.0302C52.0901 65.2175 52.121 64.4021 52.2307 63.5953C52.3449 62.5083 52.5079 61.3724 52.709 60.1441C52.9101 58.9158 53.1112 57.7907 53.3014 56.7744C53.4917 55.758 53.6384 55.0189 53.7308 54.6004C53.7536 54.5003 53.7682 54.3985 53.7743 54.296C53.8558 53.8721 53.9265 53.4862 53.9862 53.1492C54.046 52.8123 54.0895 52.6057 54.1112 52.459C54.2533 51.6941 54.3441 50.9206 54.383 50.1437C54.4102 49.6621 54.3342 49.1803 54.1602 48.7306C54.099 48.5406 53.9987 48.3656 53.8658 48.2168C53.7328 48.0679 53.5702 47.9486 53.3884 47.8664C53.1629 47.803 52.9256 47.794 52.6959 47.8403C52.4663 47.8867 52.251 47.9869 52.0677 48.1327C50.9784 48.9275 50.0599 49.9329 49.3665 51.0894C48.4139 52.5542 47.5605 54.0813 46.812 55.6602C46.0076 57.3396 45.2902 58.9212 44.6761 60.4593C44.8039 59.0138 44.8439 57.5617 44.7956 56.1113C44.7915 55.1154 44.6074 54.1285 44.2521 53.1981C44.1557 52.8773 43.9711 52.59 43.7193 52.369C43.4676 52.148 43.1588 52.0021 42.8281 51.9481C42.2086 51.8829 41.4422 52.3177 40.5183 53.2525C39.453 54.3178 38.4946 56.1838 37.6431 58.8506C37.6431 58.2418 37.6812 57.7255 37.7029 57.2962C37.724 57.1191 37.7046 56.9395 37.6462 56.771C37.5878 56.6025 37.492 56.4494 37.366 56.3233C37.2702 56.2411 37.1514 56.1907 37.0258 56.179C36.9002 56.1673 36.7741 56.195 36.6648 56.2581C36.5323 56.3433 36.4248 56.4622 36.3532 56.6025C36.2816 56.7429 36.2485 56.8997 36.2572 57.057C36.2192 57.6549 36.1866 58.4049 36.1594 59.2908L35.98 59.5028C35.6049 60.0378 35.1375 60.5016 34.5995 60.8724C34.0372 61.2691 33.4427 61.6181 32.8223 61.9159C32.6375 60.2854 32.4201 58.693 32.1592 57.182C31.8983 55.6711 31.6483 54.3178 31.4037 53.1221L31.3276 52.7199C31.2516 52.3014 31.0939 52.0622 30.8657 51.997C30.7558 51.9645 30.64 51.9574 30.527 51.9762C30.4141 51.995 30.3068 52.0393 30.2135 52.1057C30.1221 52.1541 30.0426 52.222 29.9806 52.3047C29.9186 52.3874 29.8756 52.4828 29.8548 52.584C29.7494 53.5061 29.5565 54.416 29.2786 55.3015C28.8455 56.6876 28.2354 58.012 27.4633 59.2419C26.7677 60.3289 26.2079 60.8724 25.8002 60.9539C25.3926 61.0354 25.11 60.6767 24.9687 59.9539C24.8418 58.832 24.871 57.698 25.0556 56.5842C25.2018 55.4174 25.4215 54.2611 25.7133 53.1221C25.8274 52.6981 25.7894 52.3992 25.5991 52.2361C25.4925 52.1475 25.3695 52.0808 25.2371 52.0397C25.1046 51.9987 24.9654 51.9842 24.8274 51.997C24.5038 52.0062 24.1833 52.063 23.8762 52.1655C23.7873 52.1921 23.7066 52.241 23.6419 52.3076C23.5772 52.3742 23.5306 52.4562 23.5066 52.5459C23.4686 52.7307 23.5501 52.8449 23.7512 52.8938C23.8858 52.9167 24.0138 52.9686 24.1262 53.046C24.1484 53.0994 24.1598 53.1566 24.1598 53.2145C24.1598 53.2723 24.1484 53.3295 24.1262 53.3829C23.7473 54.9244 23.518 56.4988 23.4414 58.0842C23.4214 58.6353 23.4912 59.186 23.648 59.7147C23.3453 61.1163 22.9122 62.4864 22.3544 63.8073C21.69 65.4579 20.85 67.0322 19.8489 68.5032C19.1008 69.7306 18.0264 70.726 16.7455 71.3783C16.4847 71.4799 16.2063 71.5289 15.9264 71.5224C15.6466 71.5158 15.3708 71.4539 15.115 71.3402C14.6043 71.1045 14.1599 70.746 13.8214 70.2967C13.4897 69.8615 13.2275 69.3775 13.0442 68.8619C14.2849 68.024 15.3532 66.9557 16.1911 65.715C16.9933 64.554 17.6813 63.3181 18.2455 62.0246C18.7782 60.8234 19.1914 59.5728 19.4793 58.2908C19.659 57.5229 19.7502 56.7369 19.751 55.9483C19.713 54.4971 19.4304 53.5297 18.9141 53.0568C18.6635 52.8229 18.3507 52.6662 18.0134 52.6054C17.676 52.5447 17.3282 52.5826 17.0118 52.7144C16.1732 53.0195 15.4175 53.5164 14.8052 54.1656C14.082 54.8921 13.4867 55.7355 13.0442 56.6603C12.2064 58.5385 11.6216 60.5197 11.305 62.5518C10.9317 64.6255 10.9947 66.7541 11.4898 68.8021C10.9916 68.962 10.4626 69.0011 9.94627 68.9162C6.52221 67.514 6.18524 61.3072 8.47882 52.0677C8.58752 51.6492 8.69622 51.2415 8.81579 50.8502L9.49516 50.7959C10.7833 50.7089 12.0659 50.5567 13.3377 50.3556C14.5784 50.1648 15.7826 49.7854 16.9085 49.2306C17.7984 48.7897 18.6099 48.2058 19.3108 47.5022C19.8758 46.9353 20.3212 46.2607 20.6207 45.5185C21.1062 44.1597 21.1062 42.9984 20.6207 42.0346C20.1034 41.0572 19.2531 40.2975 18.2238 39.8932C17.039 39.4119 15.7464 39.2589 14.482 39.4502C13.2176 39.6414 12.0281 40.17 11.0387 40.9802C9.13701 42.7207 7.66534 44.8789 6.73961 47.2848C6.29917 48.3382 5.91457 49.414 5.58738 50.5078C4.40389 50.6925 3.26928 51.112 2.25028 51.7416C1.31222 52.3639 0.59056 53.2622 0.184973 54.3123C0.128285 54.4329 0.082802 54.5584 0.0490977 54.6873C0.000462854 54.8251 -0.0107894 54.9732 0.0164875 55.1167C0.0762728 55.3124 0.271934 55.3558 0.5926 55.258C0.698654 55.2301 0.796681 55.1777 0.878803 55.105C0.960925 55.0323 1.02485 54.9414 1.06545 54.8395C1.10571 54.7404 1.12413 54.6337 1.11944 54.5268C1.11475 54.4198 1.08706 54.3152 1.03827 54.2199C1.37728 53.5051 1.9007 52.8935 2.55464 52.4481C3.40485 51.8894 4.35848 51.5068 5.35911 51.3231C4.98289 52.7079 4.69247 54.1146 4.48951 55.5352C4.08153 58.1827 4.08153 60.8771 4.48951 63.5247C4.65071 64.5838 4.958 65.6154 5.40259 66.59C5.80887 67.4975 6.44143 68.2854 7.23963 68.8782C8.12868 69.491 9.19368 69.7964 10.2724 69.7478C10.7646 69.7487 11.2535 69.666 11.7181 69.5032C11.9286 70.0644 12.2511 70.5769 12.666 71.0095C13.0808 71.4421 13.5794 71.7858 14.1312 72.0196C14.6887 72.248 15.2911 72.3456 15.8921 72.3051C16.4932 72.2646 17.077 72.087 17.5988 71.7859C18.77 71.0278 19.7532 70.013 20.4739 68.8184C21.4256 67.3642 22.2217 65.8139 22.849 64.1932C23.1262 63.4816 23.3656 62.756 23.5664 62.0192C23.7229 61.4833 23.8392 60.9365 23.9143 60.3832C23.9143 60.3832 23.9143 60.4213 23.9143 60.4376C24.0388 60.7354 24.2316 60.9997 24.477 61.2093C24.7225 61.4189 25.0138 61.5678 25.3274 61.6442C25.9252 61.771 26.5956 61.4286 27.3383 60.617C28.0693 59.6996 28.6845 58.6956 29.1699 57.6277C29.4127 57.1023 29.6192 56.6349 29.7895 56.2255C29.8602 57.0951 30.1048 60.03 30.2461 63.1388C29.583 63.4758 28.9308 63.8345 28.2949 64.2258C27.2077 64.9006 26.2383 65.7488 25.4252 66.7368C24.4485 67.9555 23.7109 69.3477 23.2512 70.8402C22.7457 72.5957 22.7621 74.0686 23.311 75.2535C23.603 75.9163 24.0782 76.4819 24.6806 76.884C25.2928 77.273 26.0105 77.4629 26.7351 77.4275C27.4753 77.4085 28.2043 77.2425 28.8799 76.9393C29.5554 76.6361 30.1639 76.2016 30.67 75.6611C31.6389 74.5575 32.3071 73.2229 32.6103 71.7859C32.9514 70.2295 33.1173 68.6399 33.1049 67.0466C33.1049 65.4269 33.0342 63.9776 32.8929 62.6986C33.5197 62.4042 34.1262 62.0683 34.7082 61.6931C35.2197 61.3621 35.6872 60.9676 36.0996 60.5191C36.0996 61.2003 36.0887 61.8634 36.067 62.5083C36.067 63.4323 36.0398 64.1388 36.0398 64.6008C36.0284 64.7161 36.0446 64.8325 36.0871 64.9402C36.1296 65.048 36.1973 65.144 36.2844 65.2204C36.4446 65.3258 36.6395 65.3647 36.8279 65.3291C36.9959 65.3192 37.157 65.2586 37.2899 65.1552C37.3644 65.0863 37.423 65.002 37.4615 64.9081C37.5 64.8142 37.5174 64.7131 37.5127 64.6117C37.5955 63.1675 37.8102 61.734 38.154 60.3289C38.4372 58.9376 38.8465 57.575 39.3769 56.2581C39.7866 55.3463 40.3368 54.5045 41.0074 53.7634C41.2223 53.5463 41.457 53.3497 41.7085 53.1764C43.763 51.8176 42.5292 61.1496 41.8879 63.0029C41.2466 64.8563 41.7466 65.2748 43.1325 65.3835C43.2719 65.4161 43.417 65.4161 43.5564 65.3835C43.6693 65.3669 43.775 65.3181 43.8608 65.2429C43.9467 65.1677 44.0089 65.0693 44.0402 64.9595C44.1706 64.3508 44.3771 63.6062 44.6597 62.7257C44.9424 61.8453 45.1978 61.1206 45.4261 60.5517C46.0239 59.0734 46.7106 57.5244 47.486 55.9048C48.2038 54.3923 49.0208 52.9289 49.9317 51.5242C50.3328 50.8956 50.7874 50.3028 51.2905 49.7523C52.4481 49.0512 52.2688 50.2958 51.8992 52.122C51.3557 54.6493 50.1654 57.8397 49.5513 61.9051C48.7469 67.2531 50.6383 67.2259 51.8883 67.3781H52.0296C52.4644 67.3781 53.084 66.8074 53.8884 65.6661C54.7625 64.3357 55.5469 62.9485 56.2363 61.5137C56.1983 62.329 56.1929 63.079 56.2092 63.753C56.2363 64.6389 56.3179 65.1443 56.4592 65.2639C56.5744 65.3141 56.6996 65.3367 56.8251 65.3301C56.9506 65.3235 57.0728 65.2878 57.182 65.2259C57.2922 65.1783 57.3884 65.1034 57.4617 65.0083C57.5349 64.9132 57.5827 64.801 57.6005 64.6824C57.6805 63.6958 57.8515 62.7188 58.1114 61.7637C58.3435 60.8018 58.6769 59.8672 59.106 58.9756C59.8071 57.6397 60.6026 56.3556 61.4866 55.133C61.85 54.6464 62.242 54.1818 62.6605 53.7416C63.7802 52.9753 64.1389 54.2851 63.5138 56.5733C62.8843 58.8322 62.3979 61.1285 62.0573 63.4486C61.4431 67.552 63.2203 67.3564 64.1226 67.4977C64.4758 67.5629 64.9596 67.2585 65.5574 66.59C66.4151 65.5422 67.1721 64.4157 67.8184 63.2258C68.3619 62.2801 68.7641 61.5029 69.0739 60.905C69.1148 61.9256 69.3821 62.9244 69.8565 63.829C70.0793 64.2721 70.4154 64.6482 70.8307 64.9193C71.2459 65.1904 71.7255 65.3468 72.2207 65.3726C72.6766 65.3903 73.1301 65.2977 73.5426 65.1028C73.9551 64.9079 74.3146 64.6164 74.5904 64.253C75.1828 63.492 75.6287 62.6277 75.9057 61.704C76.1576 60.9219 76.3609 60.1251 76.5144 59.318C76.5633 59.0625 76.6122 58.8723 76.6503 58.7419C76.6503 59.8669 76.6883 60.9159 76.759 61.829C76.8233 62.7474 76.9762 63.6574 77.2155 64.5465C77.2862 64.8019 77.384 65.09 77.509 65.4704C77.6357 65.8254 77.792 66.169 77.9764 66.4976C78.1028 66.7709 78.301 67.0047 78.5499 67.1741C78.7988 67.3435 79.089 67.4422 79.3895 67.4596C79.6957 67.4402 79.9941 67.3549 80.2642 67.2095C80.5344 67.0641 80.7699 66.8621 80.9548 66.6172C81.6854 65.6631 82.2092 64.5674 82.4929 63.3997C82.7944 62.3582 82.9928 61.2896 83.0853 60.2093C83.145 59.8239 83.145 59.4316 83.0853 59.0462C83.0473 58.8777 82.9495 59.0734 82.819 59.6278ZM18.5934 40.9965C19.0207 41.2538 19.3906 41.596 19.6804 42.002C20.2891 42.839 20.3598 43.926 19.8924 45.263C19.6246 45.9265 19.2232 46.5278 18.713 47.0294C18.0749 47.6591 17.3411 48.1837 16.539 48.5838C15.4576 49.1135 14.3037 49.4798 13.1149 49.6708C11.8866 49.8629 10.6438 50.0042 9.38646 50.0947H9.31037L9.00601 50.1219C11.5876 42.4422 16.5389 40.3878 18.5934 40.9965ZM12.7507 62.7801C13.0406 60.8826 13.5892 59.0338 14.3812 57.2853C14.7012 56.619 15.0911 55.9886 15.5443 55.4048C15.9713 54.8275 16.4867 54.3212 17.0716 53.9047C17.2508 53.7387 17.479 53.6351 17.722 53.6097C17.965 53.5842 18.2097 53.6381 18.4195 53.7634C18.7818 54.017 18.9829 54.7417 19.0228 55.9374C19.0215 56.6698 18.9339 57.3995 18.7619 58.1114C18.4784 59.3477 18.078 60.5543 17.5662 61.7148C17.0311 62.9609 16.372 64.1499 15.5987 65.2639C14.8453 66.3675 13.9033 67.3297 12.816 68.1064C12.4525 66.3516 12.4303 64.5433 12.7507 62.7801ZM30.1428 71.0739C29.4743 74.9165 27.3818 76.8677 24.9687 76.0905C25.0198 76.1648 25.0821 76.2308 25.1535 76.2861C24.669 75.9554 24.2914 75.4908 24.0665 74.9491C23.5954 73.9273 23.5954 72.6338 24.0665 71.0685C24.4781 69.6883 25.1455 68.3977 26.0339 67.264C26.7845 66.3418 27.6759 65.5439 28.6754 64.8997C29.2189 64.5465 29.7895 64.2258 30.3711 63.9214C30.5039 66.3078 30.4257 68.7013 30.1374 71.0739H30.1428ZM76.5579 54.97C76.384 55.9374 76.1611 57.0407 75.8894 58.2799C75.6324 59.46 75.2984 60.6219 74.8893 61.7583C74.6267 62.6239 74.1609 63.414 73.5306 64.0628C73.386 64.1991 73.2078 64.2948 73.0142 64.3399C70.9707 63.6443 71.4272 59.7908 71.7914 58.2201C72.3675 55.7363 73.5469 53.2253 75.1665 53.046L75.4328 53.1221C75.9165 53.2905 76.2916 53.9047 76.5579 54.97ZM101.559 50.5241C101.209 50.7816 100.962 51.1555 100.863 51.5785C100.624 52.4427 100.575 53.0351 100.727 53.3666C100.88 53.6982 101.113 53.7471 101.423 53.5188C101.843 53.1 102.135 52.5703 102.266 51.9916C102.461 51.2669 102.461 50.7941 102.266 50.573C102.097 50.3502 101.858 50.3339 101.559 50.5459V50.5241ZM113.886 59.0571C113.744 59.0897 113.625 59.2201 113.511 59.4539C113.104 60.3952 112.568 61.2751 111.918 62.0681C111.318 62.8456 110.582 63.5068 109.744 64.0193C109.448 64.2317 109.101 64.3617 108.738 64.3961C108.375 64.4305 108.01 64.368 107.679 64.2149C107.059 63.8997 106.617 63.0283 106.353 61.6007C106.285 61.1636 106.251 60.7222 106.249 60.28C106.251 59.8004 106.28 59.3214 106.336 58.8451C106.448 58.1398 106.598 57.4412 106.787 56.7526C107.015 55.8575 107.336 54.9886 107.744 54.1601C107.863 53.8349 108.05 53.5386 108.291 53.2904C108.533 53.0422 108.824 52.8478 109.146 52.7199C109.273 52.686 109.407 52.6924 109.529 52.7382C109.652 52.784 109.758 52.8669 109.831 52.9753C109.951 53.1999 109.999 53.4563 109.967 53.709C109.945 54.0351 110 54.2036 110.13 54.2145C110.266 54.2145 110.396 54.133 110.527 53.9373C110.668 53.7167 110.723 53.4512 110.679 53.1927C110.658 53.0055 110.599 52.8245 110.506 52.6609C110.412 52.4974 110.286 52.3546 110.135 52.2416C109.882 52.0621 109.576 51.9705 109.266 51.9807C107.695 51.7524 104.787 52.8938 104.07 57.4157C103.864 58.6314 103.831 59.8703 103.972 61.0952C103.766 61.5029 103.543 61.9214 103.309 62.3507C103.076 62.7862 102.815 63.2056 102.526 63.6062C101.189 64.2747 101.135 62.0409 101.401 60.3452C101.706 58.3723 101.798 56.7526 101.945 55.8993C102.141 54.9102 102.217 53.6329 100.586 54.3558H100.548C100.442 54.3599 100.341 54.3973 100.258 54.4628C100.175 54.5282 100.115 54.6182 100.086 54.72C99.9013 55.5026 99.7201 56.5316 99.5426 57.807C99.4556 58.4973 99.385 59.193 99.3415 59.8887C99.0862 60.5134 98.7884 61.1199 98.4501 61.704C98.0139 62.4893 97.4847 63.2192 96.874 63.878C96.6878 64.0735 96.4735 64.2402 96.2381 64.3726C94.1728 64.8182 94.9717 58.9375 95.3141 55.5026C95.5478 53.1438 95.9011 50.4317 96.2381 48.2142C97.2871 48.4969 100.727 49.5458 103.467 49.5295C106.869 49.5295 107.777 47.2359 107.902 46.1815C108.173 43.9369 108.266 39.915 105.331 35.1104C103.439 32.0016 100.901 29.0503 95.5968 26.9579C87.4823 23.6968 87.2323 21.2185 86.9007 17.9357C86.5692 14.653 86.1887 12.4681 83.7865 11.5876C81.3842 10.7071 78.8189 11.5387 76.5579 12.3268C76.4166 11.9409 75.9057 11.8431 74.1882 11.7018C72.4707 11.5604 71.3185 11.7561 68.8021 12.7507C66.2857 13.7453 61.7366 14.5714 59.8561 16.1585C57.9755 17.7455 57.2092 17.8759 56.6331 17.9792C56.057 18.0825 54.6819 18.1368 53.6112 18.2129C52.5405 18.289 51.8503 18.4249 51.7742 17.8379C51.6981 17.2509 52.7525 16.9194 53.8667 16.9194C54.4237 16.8955 54.9738 16.7855 55.4972 16.5933C55.557 16.6802 55.5352 17.4574 56.6929 17.5064C57.8505 17.5553 58.5462 16.0063 58.0951 15.2345C57.644 14.4627 56.7309 14.9084 56.7798 14.8704C56.9462 14.0778 56.8763 13.2539 56.5788 12.5007C56.4027 12.1468 56.1539 11.834 55.8486 11.583C55.5432 11.332 55.1882 11.1483 54.8069 11.0441C54.0814 10.8826 53.3367 10.8241 52.5949 10.8702C52.026 10.8716 51.462 10.7665 50.9318 10.5604C50.448 10.3702 50.3883 10.468 50.3883 10.7452C50.3883 11.0224 50.5296 11.1909 49.9263 11.4354C49.323 11.68 48.6762 12.18 48.7904 12.7779C48.9045 13.3757 49.2741 14.1801 48.9752 14.7345C48.6762 15.2889 47.3447 17.6477 46.8772 17.452C46.4098 17.2564 47.0729 16.2726 47.3447 15.5498C47.5422 14.8041 47.5214 14.0175 47.2849 13.2833C47.1514 12.4134 47.1514 11.5282 47.2849 10.6582C47.3827 9.46253 47.6707 7.62549 47.6707 7.62549C49.1817 5.94027 50.8168 4.3706 52.5623 2.92963C54.4808 1.37522 54.6439 2.50027 56.5407 1.93502C58.4375 1.36978 59.3289 0.369738 59.2039 0.190382C59.0789 0.0110266 58.606 -0.130284 57.0299 0.190382C55.9324 0.399589 54.8139 0.476228 53.6982 0.418653C52.6112 0.418653 52.6438 1.29913 50.6654 2.39157C48.9154 3.33726 47.3283 4.15251 46.0022 5.77758C44.6761 7.40266 44.3336 10.1256 44.2956 13.7508C44.2576 17.3759 43.9315 17.2346 43.4477 18.5118C42.964 19.7891 41.4477 21.5989 41.4314 22.5011C41.4655 23.1666 41.6983 23.8065 42.0999 24.3382C42.2738 24.6588 42.1977 28.2025 42.4966 29.3982C42.7955 30.5939 44.4804 32.4038 44.1271 32.4309C43.1442 32.4889 42.1588 32.4889 41.1759 32.4309C39.2573 32.3603 36.654 32.2679 36.0072 31.9418C35.5944 31.6981 35.1143 31.5933 34.6376 31.6429C33.4721 31.7537 32.2993 31.7646 31.132 31.6755C28.7732 31.5939 25.9415 31.545 23.8219 31.2515C21.7022 30.958 21.6479 30.6265 19.7239 30.2841C18.4032 30.0059 17.039 30.0059 15.7183 30.2841C14.0878 30.5015 12.8323 30.8276 12.3812 31.8005C12.2996 31.9907 12.3812 32.3059 13.1366 32.1592C13.3377 32.1211 13.6312 31.8494 13.9464 31.9635C14.2617 32.0777 14.7128 31.7787 16.1476 32.0614C17.5825 32.344 17.0988 33.1864 18.0662 33.7951C19.0336 34.4038 19.7674 33.431 20.6587 33.1103C21.55 32.7896 21.8707 32.8603 25.4904 34.4147C29.1102 35.9691 30.8765 34.8604 32.8114 35.0289C34.7463 35.1974 34.4419 36.1159 38.5453 37.3007C41.7163 38.1928 45.0485 38.3526 48.2903 37.7681C50.4644 37.4257 51.4916 38.0344 53.2743 38.6377C55.0569 39.241 56.644 38.7138 57.9484 38.5616C59.2528 38.4095 63.0845 37.5942 65.677 37.1811C68.2695 36.7681 69.0304 36.1376 71.6175 35.23C74.2045 34.3223 75.422 33.9364 77.0525 33.9093C78.683 33.8821 79.4765 34.2082 81.0146 34.3223C82.5527 34.4365 83.1886 33.8658 84.3354 33.8495C85.4822 33.8332 87.0529 32.1483 86.254 31.6755C86.0871 31.5983 85.8999 31.5768 85.7199 31.6139C85.5399 31.6511 85.3766 31.7451 85.2539 31.882C84.6052 32.2068 83.8782 32.3424 83.156 32.2733C81.3679 32.1864 81.4385 30.8059 80.7429 30.3548C80.6097 30.2768 80.4615 30.228 80.3081 30.2118C80.1546 30.1955 79.9995 30.2121 79.853 30.2604C79.7065 30.3087 79.5719 30.3877 79.4583 30.4921C79.3446 30.5964 79.2545 30.7238 79.1939 30.8656C79.0689 31.2787 79.096 32.132 77.6612 32.257C76.2263 32.382 75.6013 31.9146 72.2262 31.7135C68.851 31.5124 68.3673 33.1918 66.5846 33.2625C64.8019 33.3331 63.2366 32.8494 60.8887 32.8114C58.5408 32.7733 56.3613 33.5288 55.9972 33.4527C55.6331 33.3766 55.6004 32.0722 54.2526 31.1809C52.9047 30.2895 50.9426 30.3656 50.1654 29.0069C49.3882 27.6481 50.2578 25.485 53.6275 22.6262C56.9972 19.7673 60.0572 19.1967 63.6823 17.4629C67.3075 15.7291 68.1553 13.4573 71.3511 13.6584C74.5469 13.8595 75.297 13.2018 75.297 13.2018C76.7916 13.0496 78.2101 11.6311 81.5853 11.7018C84.6887 12.0116 85.8626 12.7888 86.205 18.0662C86.5475 23.3436 88.3791 24.5393 95.238 27.6155C105.565 32.2353 107.619 42.5835 106.923 45.812C106.619 48.5295 104.206 48.6056 102.978 48.5621C102.196 48.5028 101.42 48.3847 100.657 48.2088C99.3143 47.9099 98.1838 47.6653 96.4066 47.1218C96.6022 45.888 96.787 44.888 96.9501 44.301C97.3577 42.6162 97.8795 40.3171 95.6565 41.877C95.4327 42.0555 95.222 42.2499 95.0261 42.4585C94.5408 43.1018 94.2031 43.8441 94.0369 44.6326C93.901 45.1761 93.7815 45.763 93.6728 46.3718C92.2441 45.9853 90.7917 45.693 89.3248 45.4967C88.1703 45.3064 86.9887 45.3619 85.8572 45.6598C85.4001 45.7903 84.9823 46.0318 84.6409 46.3627C84.2996 46.6936 84.0453 47.1037 83.9006 47.5566C83.735 47.993 83.6863 48.4652 83.7593 48.9262C83.8462 49.2197 83.9658 49.361 84.1289 49.3447C84.2919 49.3284 84.3898 49.1599 84.4169 48.8338C84.413 48.4113 84.5096 47.9938 84.6985 47.6159C84.8875 47.2379 85.1636 46.9102 85.5039 46.6598C86.2117 46.2456 87.0286 46.0561 87.8464 46.1163C88.8268 46.1552 89.8 46.301 90.7487 46.5511C91.7488 46.812 92.6618 47.0946 93.4662 47.3664C93.2543 48.5186 93.0695 49.7306 92.9227 50.9861C92.5872 53.6045 92.4419 56.2438 92.4879 58.8832C91.1824 58.8264 89.8866 59.1311 88.7432 59.7637C86.3572 57.0461 85.4822 55.4754 85.2485 53.5188C85.0202 51.3774 86.9605 50.16 88.0801 50.5241L88.3845 50.6111C88.6484 50.7266 88.8938 50.8804 89.1128 51.0676C89.6607 51.5556 90.079 52.1718 90.3302 52.8612C90.5041 53.2145 90.6618 53.3449 90.8085 53.2416C90.9553 53.1384 90.9879 52.8829 90.9063 52.4644C90.7348 51.8841 90.4274 51.3531 90.0096 50.9154C89.4027 50.2215 88.5645 49.7715 87.6508 49.6491C87.0409 49.5731 86.4218 49.6274 85.8344 49.8082C85.247 49.989 84.7046 50.2923 84.243 50.698C83.3579 51.4701 82.8065 52.5552 82.7049 53.7253C82.592 55.0836 82.9785 56.4363 83.7919 57.5299C84.4278 58.4049 85.2376 59.4049 86.2105 60.53L86.7866 61.2148C86.0889 61.8177 85.4893 62.5254 85.0093 63.3127C84.1669 64.7421 83.8408 65.9324 84.0419 66.8727C84.1173 67.3094 84.2878 67.7242 84.5414 68.0877C84.795 68.4512 85.1255 68.7545 85.5094 68.976C86.2319 69.3873 87.0534 69.5922 87.8845 69.5684C88.4599 69.577 89.0328 69.4907 89.5802 69.313H89.64C89.7488 69.2807 89.8559 69.2426 89.9606 69.1989C90.4361 69.0082 90.8565 68.7018 91.1835 68.3075C93.2488 66.2531 91.602 62.9921 89.4226 60.6061L89.2106 60.3778C89.7924 60.0737 90.4175 59.8611 91.064 59.7473C91.5442 59.6595 92.0338 59.6339 92.5205 59.6713C92.5205 60.1115 92.5695 60.5463 92.6075 60.9648C92.6983 61.8937 92.9084 62.8071 93.2325 63.6823C93.6891 64.7693 94.3032 65.3563 95.075 65.4433C95.8468 65.5302 96.6222 65.1878 97.4012 64.416C97.971 63.8079 98.4722 63.139 98.8958 62.4214C99.0317 62.1931 99.1621 61.9648 99.2926 61.7311C99.2923 62.2589 99.3469 62.7854 99.4556 63.3018C99.5539 63.8637 99.7686 64.3987 100.086 64.8726C100.218 65.0809 100.411 65.2444 100.638 65.3414C100.865 65.4384 101.116 65.4644 101.358 65.4161C101.909 65.2692 102.398 64.9468 102.749 64.4976C103.205 63.9575 103.606 63.373 103.945 62.7529C104.032 62.6007 104.113 62.4486 104.19 62.3018C104.733 64.2475 105.945 65.4704 107.749 65.4541C108.226 65.4861 108.704 65.4157 109.152 65.2476C110.184 64.8532 111.114 64.2287 111.869 63.4214C112.718 62.572 113.4 61.571 113.88 60.4702C114.049 60.1329 114.135 59.7603 114.13 59.3832C114.136 59.1223 114.021 59.0245 113.886 59.0571ZM89.4824 64.628C89.8395 65.1322 90.0909 65.7035 90.2215 66.3074C90.2969 66.6302 90.2907 66.9667 90.2034 67.2865C90.1161 67.6063 89.9505 67.8993 89.7215 68.139C89.4744 68.3758 89.183 68.5615 88.8641 68.6855C88.5451 68.8095 88.2049 68.8695 87.8627 68.8619C87.1567 68.8703 86.4623 68.6821 85.8572 68.3184C85.5517 68.1429 85.2911 67.8989 85.0959 67.6056C84.9006 67.3123 84.7761 66.9777 84.7322 66.6281C84.6017 65.8563 84.8898 64.8671 85.5963 63.6606C86.0426 62.9412 86.5919 62.2911 87.2268 61.7311C88.1019 62.7529 88.8465 63.7149 89.4824 64.628ZM123.848 59.0408C123.654 58.9366 123.438 58.8824 123.218 58.8832C122.004 58.8275 120.798 59.0898 119.717 59.6441L119.663 59.5952C116.402 56.7037 115.679 55.3993 116.185 52.8829C116.235 52.4844 116.383 52.1045 116.616 51.7773C116.849 51.4501 117.16 51.1859 117.52 51.0082C117.881 50.8305 118.279 50.7449 118.681 50.759C119.082 50.7732 119.474 50.8867 119.821 51.0894C120.369 51.5773 120.787 52.1936 121.038 52.8829C121.207 53.2362 121.37 53.3666 121.516 53.2634C121.663 53.1601 121.696 52.9047 121.614 52.4862C121.441 51.9067 121.134 51.3761 120.717 50.9372C120.111 50.2432 119.272 49.7932 118.359 49.6708C117.757 49.593 117.147 49.6418 116.565 49.814C115.984 49.9862 115.445 50.2781 114.983 50.6709C114.098 51.4429 113.547 52.528 113.445 53.6982C113.335 55.0562 113.721 56.4082 114.532 57.5027C115.174 58.3795 115.982 59.3796 116.956 60.5028L117.533 61.1876C116.84 61.7847 116.245 62.485 115.766 63.2638C114.924 64.6932 114.598 65.8835 114.799 66.8237C114.874 67.2605 115.045 67.6753 115.298 68.0388C115.552 68.4023 115.882 68.7056 116.266 68.9271C116.989 69.3498 117.815 69.5643 118.652 69.5467C119.342 69.556 120.028 69.4286 120.669 69.1717V69.2152L120.94 69.0684C121.163 68.9603 121.373 68.8272 121.565 68.6717C125.098 66.1661 122.837 62.6062 120.326 60.1713C120.812 59.9529 121.323 59.7959 121.848 59.7039C122.438 59.5944 123.041 59.5797 123.636 59.6604C123.681 59.6634 123.726 59.6567 123.768 59.6407C123.811 59.6248 123.849 59.6 123.881 59.568C123.957 59.5033 124.011 59.4156 124.033 59.318C124.029 59.2201 123.968 59.1278 123.848 59.0408ZM120.995 66.2639C121.07 66.5867 121.064 66.9232 120.977 67.243C120.889 67.5628 120.724 67.8558 120.495 68.0955C120.247 68.3323 119.956 68.518 119.637 68.642C119.318 68.7661 118.978 68.826 118.636 68.8184C117.93 68.8268 117.235 68.6386 116.63 68.2749C116.324 68.1 116.063 67.8562 115.868 67.5628C115.673 67.2694 115.548 66.9344 115.505 66.5846C115.375 65.8128 115.663 64.8237 116.369 63.6171C116.816 62.8977 117.365 62.2476 118 61.6876C118.853 62.6877 119.598 63.6497 120.234 64.5628C120.6 65.0723 120.859 65.6511 120.995 66.2639Z" fill="white"/>
</svg>
