<svg width="215" height="135" viewBox="0 0 215 135" fill="none" xmlns="http://www.w3.org/2000/svg">
<g clip-path="url(#clip0_4_682)">
<path fill-rule="evenodd" clip-rule="evenodd" d="M64.7969 132.232H65.3152V131.092C65.4117 131.226 65.5188 131.352 65.6356 131.469C66.0739 131.909 66.6331 132.209 67.2421 132.331C67.8512 132.453 68.4828 132.392 69.0569 132.155C69.6311 131.918 70.1219 131.516 70.4673 130.999C70.8126 130.483 70.997 129.876 70.997 129.254C70.997 128.633 70.8126 128.026 70.4673 127.51C70.1219 126.993 69.6311 126.591 69.0569 126.354C68.4828 126.117 67.8512 126.056 67.2421 126.178C66.6331 126.3 66.0739 126.6 65.6356 127.04C65.5189 127.154 65.4118 127.276 65.3152 127.407V123.091H64.7969V132.232ZM66.0219 127.426C66.3844 127.064 66.8462 126.817 67.3489 126.717C67.8515 126.618 68.3725 126.669 68.846 126.865C69.3194 127.061 69.7241 127.393 70.0088 127.82C70.2935 128.246 70.4455 128.747 70.4455 129.259C70.4455 129.772 70.2935 130.273 70.0088 130.699C69.7241 131.125 69.3194 131.457 68.846 131.653C68.3725 131.849 67.8515 131.901 67.3489 131.801C66.8462 131.701 66.3844 131.454 66.0219 131.092C65.6556 130.747 65.4081 130.295 65.3152 129.801V128.727C65.4075 128.229 65.6549 127.774 66.0219 127.426ZM76.3879 126.625H75.8131L73.9284 130.536L72.0436 126.625H71.4688L73.5985 131.196L72.119 134.362H72.6939L76.3879 126.625ZM84.8692 122.969C83.7782 122.969 82.721 123.347 81.8779 124.039C81.0348 124.732 80.4581 125.695 80.2462 126.766C80.0343 127.836 80.2003 128.946 80.7159 129.908C81.2316 130.869 82.0649 131.622 83.0736 132.037C84.0823 132.453 85.204 132.506 86.2472 132.186C87.2904 131.867 88.1905 131.196 88.7939 130.287C89.3972 129.378 89.6665 128.288 89.5557 127.202C89.4449 126.117 88.9609 125.104 88.1863 124.335C87.7575 123.891 87.2415 123.54 86.6706 123.305C86.0998 123.07 85.4864 122.956 84.8692 122.969ZM87.8188 124.712C88.4964 125.394 88.917 126.289 89.0091 127.245C89.1011 128.201 88.8589 129.16 88.3236 129.958C87.7883 130.756 86.9931 131.344 86.0732 131.622C85.1533 131.899 84.1657 131.85 83.2783 131.481C82.3909 131.112 81.6587 130.448 81.2062 129.6C80.7537 128.753 80.6089 127.774 80.7965 126.832C80.984 125.89 81.4923 125.041 82.2349 124.431C82.9774 123.822 83.9083 123.488 84.8692 123.487C85.4187 123.478 85.9642 123.581 86.4717 123.792C86.9792 124.003 87.4378 124.316 87.8188 124.712ZM92.6814 126.597L91.1171 128.482V124.175H90.5988V132.166H91.1171V129.339L91.6165 128.717L93.5012 132.204H94.142L91.9369 128.303L93.3222 126.597H92.6814ZM96.8937 129.726C97.0036 129.83 97.0912 129.956 97.1511 130.095C97.2111 130.234 97.2421 130.384 97.2424 130.536C97.2437 130.687 97.2151 130.837 97.1585 130.977C97.1019 131.117 97.0182 131.244 96.9124 131.352C96.8065 131.459 96.6804 131.545 96.5414 131.604C96.4024 131.663 96.2531 131.694 96.1022 131.695C95.9476 131.699 95.794 131.672 95.6504 131.614C95.5069 131.557 95.3765 131.471 95.2672 131.362C95.158 131.252 95.072 131.122 95.0147 130.978C94.9573 130.835 94.9297 130.681 94.9336 130.527L94.4248 130.649C94.4271 130.852 94.471 131.051 94.5536 131.236C94.6363 131.421 94.756 131.587 94.9054 131.723C95.218 132.035 95.6417 132.211 96.0833 132.211C96.525 132.211 96.9486 132.035 97.2613 131.723C97.5686 131.408 97.7407 130.986 97.7407 130.546C97.7407 130.105 97.5686 129.683 97.2613 129.368C96.9464 129.085 96.5945 128.848 96.2152 128.661C96.0039 128.536 95.8051 128.39 95.6216 128.227C95.5032 128.112 95.422 127.964 95.3885 127.802C95.355 127.64 95.3706 127.472 95.4334 127.319C95.4962 127.166 95.6033 127.035 95.7409 126.943C95.8786 126.852 96.0405 126.803 96.2058 126.804C96.3099 126.799 96.4139 126.816 96.5112 126.853C96.6086 126.891 96.6971 126.948 96.7712 127.021C96.9277 127.203 97.0203 127.432 97.0351 127.671L97.4874 127.492C97.4865 127.34 97.4542 127.189 97.3926 127.05C97.331 126.91 97.2414 126.785 97.1293 126.682C97.0064 126.558 96.8591 126.462 96.6969 126.399C96.5346 126.336 96.361 126.307 96.187 126.314C96.0112 126.313 95.837 126.347 95.675 126.415C95.5129 126.483 95.3665 126.583 95.2446 126.71C94.996 126.961 94.8565 127.299 94.8565 127.652C94.8565 128.005 94.996 128.344 95.2446 128.595C95.5296 128.838 95.8467 129.041 96.187 129.198C96.4471 129.355 96.693 129.535 96.922 129.735L96.8937 129.726ZM103.17 126.597H102.595L100.71 130.508L98.8256 126.597H98.2507L100.38 131.167L98.9481 134.362H99.5229L103.17 126.597ZM114.478 123.063L111.171 127.398L107.863 123.063H107.118V132.204H107.637V123.619L111.171 128.256L114.714 123.619V132.204H115.223V123.063H114.478ZM122.507 126.597H121.989V127.389C121.89 127.257 121.783 127.131 121.668 127.012C121.23 126.573 120.67 126.274 120.062 126.153C119.453 126.032 118.822 126.094 118.249 126.332C117.675 126.569 117.185 126.972 116.841 127.488C116.496 128.004 116.312 128.61 116.312 129.231C116.312 129.852 116.496 130.458 116.841 130.974C117.185 131.49 117.675 131.892 118.249 132.13C118.822 132.368 119.453 132.43 120.062 132.309C120.67 132.188 121.23 131.889 121.668 131.45C121.782 131.328 121.885 131.205 121.989 131.073V132.214H122.507V126.597ZM121.273 131.054C120.912 131.416 120.452 131.663 119.951 131.763C119.45 131.863 118.93 131.812 118.458 131.617C117.986 131.422 117.582 131.091 117.298 130.666C117.014 130.241 116.862 129.742 116.862 129.231C116.862 128.72 117.014 128.22 117.298 127.796C117.582 127.371 117.986 127.04 118.458 126.845C118.93 126.65 119.45 126.599 119.951 126.699C120.452 126.799 120.912 127.046 121.273 127.407C121.63 127.767 121.875 128.222 121.979 128.717V129.735C121.882 130.238 121.632 130.698 121.263 131.054H121.273ZM123.289 126.597V127.115H124.43V132.204H124.938V127.115H126.088V126.597H124.938V124.213H124.43V126.597H123.289ZM126.899 132.204H127.417V127.747C127.499 127.57 127.614 127.41 127.756 127.276C128.082 126.953 128.523 126.773 128.981 126.773C129.44 126.773 129.88 126.953 130.206 127.276C130.37 127.434 130.5 127.625 130.588 127.835C130.675 128.046 130.719 128.272 130.715 128.501V132.204H131.233V128.435C131.233 127.867 131.01 127.323 130.611 126.919C130.213 126.515 129.671 126.284 129.104 126.277H128.991C128.701 126.271 128.413 126.325 128.144 126.433C127.875 126.542 127.631 126.703 127.426 126.908V123.082H126.908V132.223L126.899 132.204ZM133.495 127.398C133.736 127.157 134.022 126.966 134.336 126.836C134.65 126.706 134.988 126.639 135.328 126.639C135.668 126.639 136.006 126.706 136.32 126.836C136.635 126.966 136.92 127.157 137.161 127.398C137.444 127.683 137.654 128.032 137.773 128.416H132.873C133.003 128.031 133.223 127.682 133.514 127.398H133.495ZM138.367 128.944C138.369 128.584 138.298 128.227 138.159 127.895C138.02 127.563 137.815 127.263 137.557 127.012C137.118 126.573 136.559 126.274 135.95 126.153C135.341 126.032 134.71 126.094 134.137 126.332C133.564 126.569 133.074 126.972 132.729 127.488C132.384 128.004 132.2 128.61 132.2 129.231C132.2 129.852 132.384 130.458 132.729 130.974C133.074 131.49 133.564 131.892 134.137 132.13C134.71 132.368 135.341 132.43 135.95 132.309C136.559 132.188 137.118 131.889 137.557 131.45C137.709 131.312 137.845 131.157 137.962 130.988L137.415 130.791C137.331 130.885 137.255 130.979 137.17 131.064C136.93 131.305 136.644 131.496 136.329 131.626C136.015 131.756 135.678 131.823 135.337 131.823C134.997 131.823 134.66 131.756 134.345 131.626C134.031 131.496 133.745 131.305 133.505 131.064C133.255 130.818 133.059 130.525 132.928 130.2C132.797 129.876 132.733 129.529 132.741 129.179C132.741 129.085 132.741 128.991 132.741 128.896L138.367 128.944ZM145.077 126.597L143.597 131.205L142.278 127.549H141.986L140.666 131.205L139.187 126.597H138.593L140.478 132.204H140.808L142.108 128.548L143.418 132.204H143.739L145.623 126.597H145.077ZM148.498 129.726C148.606 129.831 148.692 129.957 148.751 130.096C148.809 130.235 148.838 130.385 148.837 130.536C148.837 130.843 148.716 131.137 148.501 131.356C148.286 131.574 147.994 131.7 147.687 131.705C147.535 131.705 147.384 131.675 147.243 131.617C147.103 131.558 146.975 131.473 146.867 131.365C146.65 131.14 146.529 130.839 146.528 130.527L146.019 130.649C146.023 130.852 146.069 131.052 146.153 131.237C146.237 131.422 146.359 131.587 146.509 131.723C146.663 131.878 146.846 132 147.047 132.083C147.249 132.167 147.464 132.21 147.682 132.21C147.9 132.21 148.116 132.167 148.317 132.083C148.519 132 148.702 131.878 148.856 131.723C149.168 131.411 149.343 130.987 149.343 130.546C149.343 130.104 149.168 129.68 148.856 129.368C148.544 129.086 148.195 128.848 147.819 128.661C147.605 128.536 147.403 128.391 147.216 128.227C147.098 128.112 147.016 127.964 146.983 127.802C146.949 127.64 146.965 127.472 147.028 127.319C147.091 127.166 147.198 127.035 147.335 126.943C147.473 126.852 147.635 126.803 147.8 126.804C147.904 126.798 148.009 126.814 148.106 126.852C148.204 126.889 148.292 126.947 148.366 127.021C148.524 127.203 148.62 127.431 148.639 127.671L149.082 127.492C149.08 127.341 149.049 127.191 148.989 127.052C148.929 126.913 148.842 126.787 148.733 126.682C148.481 126.435 148.143 126.298 147.791 126.298C147.438 126.298 147.1 126.435 146.848 126.682C146.6 126.932 146.46 127.271 146.46 127.624C146.46 127.977 146.6 128.316 146.848 128.567C147.132 128.812 147.449 129.015 147.791 129.17C148.049 129.329 148.295 129.509 148.526 129.707L148.498 129.726Z" fill="#1A1A1A"/>
<path fill-rule="evenodd" clip-rule="evenodd" d="M143.597 103.387C143.531 103.726 143.456 104.065 143.39 104.414C143.07 105.997 142.674 107.618 142.184 109.257C141.74 110.829 141.07 112.327 140.195 113.705C139.253 115.11 138.395 115.59 137.755 115.194C136.975 114.539 136.478 113.607 136.369 112.593C135.936 110.27 135.684 107.916 135.615 105.554C135.502 102.777 135.474 100.204 135.531 97.836C135.524 96.3242 135.612 94.8134 135.795 93.3127C135.854 93.0731 135.848 92.8222 135.779 92.5854C135.709 92.3487 135.578 92.1346 135.399 91.9651C135.241 91.8206 135.051 91.7162 134.844 91.6604C134.637 91.6047 134.42 91.5993 134.211 91.6447C133.973 91.7032 133.758 91.8297 133.59 92.0087C133.423 92.1878 133.311 92.4116 133.269 92.653C133.269 92.7755 133.194 92.9169 133.156 93.0677C132.895 92.346 132.461 91.699 131.893 91.1829C131.575 90.88 131.205 90.6373 130.8 90.4668C129.815 90.1024 128.732 90.1024 127.747 90.4668C126.713 90.8298 125.742 91.3546 124.873 92.0217C123.12 93.5411 121.792 95.4893 121.018 97.6758C120.388 99.3446 119.989 101.091 119.831 102.868L119.746 102.991C119.19 103.999 118.578 105.073 117.927 106.232C117.098 107.769 116.288 109.239 115.477 110.643C114.825 111.802 114.111 112.925 113.338 114.007C112.726 114.846 112.283 115.175 112.019 114.949C111.755 114.723 111.755 113.856 112.019 112.207C112.283 110.558 112.763 108.494 113.31 106.346C113.856 104.197 114.356 101.973 114.761 99.8056C115.15 97.8967 115.268 95.9424 115.11 94.0006C114.865 92.2572 114.356 91.117 113.602 90.5704C113.226 90.3048 112.791 90.1351 112.334 90.076C111.878 90.0169 111.413 90.0701 110.982 90.2312C109.897 90.5968 108.901 91.1877 108.061 91.9651C106.523 93.4052 105.189 95.0473 104.093 96.8465C102.975 98.6873 102.171 100.123 101.681 101.153C101.559 101.36 101.455 101.54 101.389 101.681C101.05 102.312 100.739 102.953 100.447 103.566L100.531 102.482C100.663 100.993 100.795 99.8056 100.927 98.9197C100.962 98.6917 100.938 98.4584 100.857 98.2422C100.777 98.026 100.642 97.8343 100.465 97.6852C100.308 97.543 100.119 97.4419 99.9132 97.3909C99.7076 97.3399 99.4926 97.3407 99.2874 97.3931C98.8634 97.6004 98.5147 98.4768 98.232 100.022C98.0435 101.115 97.8833 102.227 97.7796 103.339C94.5945 110.024 92.449 113.925 91.3433 115.044C90.7967 115.628 90.4763 115.439 90.4009 114.488C90.3173 113.078 90.3709 111.665 90.5611 110.266C90.759 108.381 91.0418 106.412 91.3904 104.282C91.7391 102.152 92.0878 100.201 92.4176 98.4391C92.7474 96.6769 93.0019 95.3953 93.1621 94.6697C93.2017 94.4962 93.2269 94.3196 93.2375 94.142C93.3788 93.4069 93.5013 92.7378 93.605 92.1536C93.7086 91.5693 93.784 91.2112 93.8217 90.9568C94.068 89.6306 94.2254 88.2895 94.2929 86.9423C94.3401 86.1074 94.2084 85.272 93.9065 84.4922C93.8004 84.1629 93.6265 83.8594 93.3961 83.6013C93.1656 83.3433 92.8837 83.1363 92.5684 82.9938C92.1774 82.8839 91.7659 82.8684 91.3677 82.9487C90.9696 83.0289 90.5963 83.2027 90.2784 83.4556C88.3898 84.8336 86.7971 86.5769 85.5949 88.582C83.9432 91.1219 82.4636 93.7696 81.1658 96.5073C79.7711 99.4223 78.5366 102.196 77.4623 104.828C77.6841 102.322 77.7533 99.8043 77.6696 97.2895C77.6625 95.5627 77.3433 93.8515 76.7273 92.2384C76.5601 91.6821 76.24 91.184 75.8035 90.8008C75.3669 90.4175 74.8315 90.1647 74.2583 90.071C73.184 89.9579 71.8552 90.7118 70.2532 92.3326C68.4062 94.1797 66.7445 97.4151 65.2681 102.039C65.2681 100.984 65.3341 100.088 65.3718 99.3438C65.4083 99.0368 65.3746 98.7254 65.2735 98.4333C65.1722 98.1411 65.0061 97.8757 64.7875 97.657C64.6216 97.5145 64.4155 97.4271 64.1977 97.4068C63.9799 97.3866 63.7612 97.4345 63.5719 97.5439C63.3422 97.6917 63.1557 97.8978 63.0316 98.1412C62.9074 98.3845 62.85 98.6564 62.8651 98.9292C62.7991 99.9658 62.7426 101.266 62.6955 102.802L62.3845 103.17C61.7342 104.097 60.9236 104.902 59.9909 105.545C59.0158 106.232 57.9851 106.838 56.9094 107.354C56.589 104.527 56.212 101.766 55.7597 99.1459C55.3074 96.5261 54.8739 94.1797 54.4498 92.1065L54.3179 91.4091C54.186 90.6835 53.9127 90.2689 53.5169 90.1558C53.3264 90.0994 53.1257 90.0871 52.9297 90.1197C52.7338 90.1524 52.5479 90.2292 52.386 90.3442C52.2277 90.4281 52.0898 90.5459 51.9822 90.6893C51.8747 90.8326 51.8002 90.998 51.7641 91.1735C51.5814 92.7723 51.2469 94.35 50.7652 95.8853C50.0142 98.2886 48.9563 100.585 47.6177 102.717C46.4115 104.602 45.4408 105.545 44.7341 105.686C44.0273 105.827 43.5373 105.205 43.2922 103.952C43.0722 102.007 43.1229 100.041 43.443 98.1093C43.6965 96.0864 44.0773 94.0814 44.5833 92.1065C44.7812 91.3714 44.7152 90.8531 44.3854 90.5704C44.2005 90.4167 43.9872 90.301 43.7576 90.2298C43.528 90.1587 43.2866 90.1335 43.0472 90.1558C42.4862 90.1717 41.9305 90.2701 41.3981 90.4479C41.2438 90.494 41.1039 90.5788 40.9918 90.6943C40.8796 90.8097 40.7989 90.952 40.7573 91.1076C40.6913 91.428 40.8327 91.6259 41.1813 91.7107C41.4147 91.7504 41.6366 91.8404 41.8316 91.9745C41.8699 92.0671 41.8897 92.1664 41.8897 92.2667C41.8897 92.3669 41.8699 92.4662 41.8316 92.5588C41.1746 95.2314 40.7769 97.9612 40.6442 100.71C40.6095 101.666 40.7305 102.621 41.0023 103.537C40.4775 105.967 39.7266 108.343 38.7595 110.633C37.6075 113.495 36.151 116.225 34.4152 118.775C33.1182 120.904 31.2552 122.629 29.0343 123.76C28.5821 123.937 28.0994 124.022 27.6142 124.01C27.1289 123.999 26.6507 123.892 26.2072 123.694C25.3217 123.286 24.5512 122.664 23.9644 121.885C23.3892 121.131 22.9346 120.291 22.6168 119.397C24.768 117.944 26.6203 116.092 28.0731 113.941C29.464 111.928 30.6569 109.785 31.6352 107.542C32.5587 105.46 33.2752 103.291 33.7744 101.068C34.086 99.7369 34.2441 98.3742 34.2456 97.0068C34.1796 94.4906 33.6896 92.8132 32.7943 91.9934C32.3598 91.5878 31.8176 91.316 31.2326 91.2107C30.6476 91.1054 30.0447 91.171 29.4961 91.3997C28.042 91.9286 26.7318 92.7903 25.6701 93.9158C24.4162 95.1755 23.3839 96.6379 22.6168 98.2412C21.1641 101.498 20.1501 104.933 19.6012 108.456C18.954 112.052 19.0631 115.743 19.9216 119.294C19.0579 119.571 18.1405 119.639 17.2453 119.492C11.3085 117.06 10.7242 106.298 14.701 90.2783C14.8894 89.5527 15.0779 88.8459 15.2852 88.1674L16.4632 88.0732C18.6966 87.9224 20.9206 87.6585 23.1257 87.3098C25.2768 86.9789 27.3647 86.3211 29.317 85.3591C30.8599 84.5947 32.267 83.5824 33.4822 82.3624C34.4619 81.3795 35.2342 80.2098 35.7533 78.9228C36.5952 76.5669 36.5952 74.5534 35.7533 72.8823C34.8565 71.1876 33.3821 69.8704 31.5975 69.1694C29.5433 68.3349 27.3021 68.0695 25.1097 68.4012C22.9174 68.7328 20.855 69.6493 19.1395 71.0541C15.8422 74.0718 13.2905 77.8138 11.6854 81.9855C10.9217 83.8118 10.2549 85.6772 9.68759 87.5737C7.63557 87.8939 5.6683 88.6212 3.90148 89.7129C2.27501 90.7919 1.02374 92.3494 0.320507 94.1702C0.222217 94.3793 0.143355 94.597 0.0849164 94.8205C0.000589891 95.0593 -0.0189201 95.3161 0.0283746 95.5649C0.132035 95.9042 0.471285 95.9796 1.02728 95.8099C1.21116 95.7615 1.38113 95.6707 1.52352 95.5447C1.66591 95.4186 1.77675 95.261 1.84713 95.0843C1.91695 94.9124 1.94888 94.7274 1.94075 94.542C1.93262 94.3567 1.88462 94.1752 1.80002 94.01C2.38782 92.7705 3.29536 91.7101 4.42921 90.9379C5.90336 89.9692 7.55682 89.3059 9.2918 88.9872C8.63948 91.3884 8.13593 93.8274 7.78402 96.2906C7.07664 100.881 7.07664 105.553 7.78402 110.143C8.06352 111.98 8.59632 113.768 9.36719 115.458C10.0716 117.032 11.1684 118.398 12.5524 119.426C14.0939 120.488 15.9404 121.018 17.8108 120.933C18.6643 120.935 19.5119 120.792 20.3174 120.509C20.6825 121.482 21.2417 122.371 21.961 123.121C22.6803 123.871 23.5446 124.467 24.5015 124.872C25.4681 125.268 26.5125 125.438 27.5547 125.367C28.5968 125.297 29.6091 124.989 30.5138 124.467C32.5445 123.153 34.2493 121.393 35.4989 119.322C37.149 116.801 38.5293 114.113 39.617 111.302C40.0976 110.069 40.5128 108.81 40.8609 107.533C41.1323 106.604 41.3338 105.656 41.4641 104.696C41.4641 104.696 41.4641 104.762 41.4641 104.791C41.68 105.307 42.0142 105.765 42.4398 106.129C42.8654 106.492 43.3705 106.75 43.9142 106.883C44.9508 107.103 46.113 106.509 47.4009 105.102C48.6717 103.513 49.7386 101.772 50.5767 99.9186C50.9976 99.0077 51.3557 98.1973 51.651 97.4874C51.7735 98.9951 52.1976 104.084 52.4426 109.474C51.2929 110.058 50.1621 110.68 49.0595 111.359C47.1745 112.529 45.4937 114 44.0838 115.713C42.3904 117.826 41.1115 120.24 40.3144 122.827C39.438 125.871 39.4662 128.425 40.418 130.479C40.9244 131.629 41.7482 132.609 42.7928 133.307C43.8543 133.981 45.0987 134.31 46.3549 134.249C47.6384 134.216 48.9025 133.928 50.0737 133.402C51.245 132.877 52.3001 132.123 53.1776 131.186C54.8575 129.273 56.0161 126.959 56.5419 124.467C57.1332 121.769 57.4209 119.012 57.3994 116.25C57.3994 113.442 57.2769 110.929 57.0319 108.711C58.1187 108.2 59.1702 107.618 60.1794 106.968C61.0663 106.394 61.8769 105.71 62.5918 104.932C62.5918 106.113 62.573 107.263 62.5353 108.381C62.5353 109.983 62.4882 111.208 62.4882 112.009C62.4683 112.209 62.4964 112.411 62.5702 112.598C62.6439 112.784 62.7612 112.951 62.9122 113.083C63.19 113.266 63.5279 113.334 63.8546 113.272C64.146 113.255 64.4253 113.15 64.6556 112.97C64.7848 112.851 64.8864 112.705 64.9531 112.542C65.0199 112.379 65.0502 112.204 65.042 112.028C65.1856 109.524 65.5578 107.038 66.154 104.602C66.6449 102.19 67.3546 99.8274 68.2743 97.5439C68.9846 95.9631 69.9385 94.5035 71.1014 93.2184C71.4739 92.842 71.8809 92.5012 72.317 92.2007C75.8791 89.8448 73.74 106.025 72.628 109.239C71.516 112.452 72.383 113.178 74.786 113.366C75.0277 113.423 75.2793 113.423 75.521 113.366C75.7168 113.337 75.9 113.253 76.0488 113.122C76.1976 112.992 76.3056 112.821 76.3597 112.631C76.5859 111.576 76.944 110.285 77.434 108.758C77.9241 107.231 78.367 105.975 78.7628 104.989C79.7994 102.425 80.9899 99.7396 82.3343 96.9314C83.5789 94.3088 84.9955 91.7715 86.575 89.3359C87.2704 88.246 88.0587 87.2182 88.9309 86.2638C90.9381 85.0482 90.6271 87.2062 89.9863 90.3725C89.0439 94.7545 86.9802 100.286 85.9153 107.335C84.5206 116.608 87.8 116.561 89.9675 116.825H90.2125C90.9664 116.825 92.0407 115.835 93.4353 113.856C94.951 111.55 96.311 109.144 97.5064 106.657C97.4404 108.07 97.431 109.371 97.4592 110.539C97.5064 112.075 97.6477 112.952 97.8927 113.159C98.0924 113.246 98.3096 113.285 98.5272 113.274C98.7447 113.262 98.9566 113.2 99.1461 113.093C99.3371 113.01 99.504 112.881 99.6309 112.716C99.7579 112.551 99.8407 112.356 99.8717 112.151C100.01 110.44 100.307 108.746 100.758 107.09C101.16 105.422 101.738 103.802 102.482 102.256C103.698 99.9395 105.077 97.713 106.61 95.5932C107.24 94.7495 107.919 93.9439 108.645 93.1808C110.586 91.852 111.208 94.1231 110.125 98.0905C109.033 102.007 108.19 105.989 107.599 110.011C106.534 117.126 109.616 116.787 111.18 117.032C111.793 117.145 112.631 116.617 113.668 115.458C115.155 113.641 116.468 111.688 117.588 109.625C118.53 107.985 119.228 106.638 119.765 105.601C119.836 107.371 120.299 109.102 121.122 110.671C121.508 111.439 122.091 112.091 122.811 112.561C123.531 113.031 124.363 113.303 125.221 113.347C126.012 113.378 126.798 113.217 127.513 112.88C128.228 112.542 128.852 112.036 129.33 111.406C130.357 110.087 131.13 108.588 131.61 106.986C132.047 105.63 132.4 104.249 132.666 102.849C132.751 102.406 132.836 102.077 132.901 101.85C132.901 103.801 132.967 105.62 133.09 107.203C133.202 108.796 133.467 110.373 133.882 111.915C134.004 112.358 134.174 112.857 134.39 113.517C134.61 114.132 134.881 114.728 135.201 115.298C135.42 115.772 135.764 116.177 136.195 116.471C136.627 116.765 137.13 116.936 137.651 116.966C138.182 116.932 138.699 116.784 139.168 116.532C139.636 116.28 140.044 115.93 140.365 115.505C141.632 113.851 142.54 111.951 143.032 109.927C143.555 108.121 143.899 106.268 144.059 104.395C144.162 103.727 144.162 103.046 144.059 102.378C143.993 102.086 143.823 102.425 143.597 103.387ZM32.2383 71.0824C32.9792 71.5285 33.6206 72.1218 34.1231 72.8257C35.1785 74.277 35.301 76.1617 34.4906 78.4799C34.0264 79.6303 33.3303 80.6729 32.4456 81.5426C31.3393 82.6343 30.0671 83.544 28.6762 84.2377C26.8013 85.1561 24.8006 85.7913 22.7393 86.1225C20.6096 86.4554 18.4547 86.7004 16.2747 86.8575H16.1428L15.6151 86.9046C20.0913 73.589 28.6762 70.0269 32.2383 71.0824ZM22.1079 108.852C22.6106 105.562 23.5618 102.357 24.935 99.325C25.4898 98.1697 26.1658 97.0767 26.9517 96.0644C27.692 95.0634 28.5856 94.1857 29.5997 93.4635C29.9105 93.1756 30.3061 92.9961 30.7275 92.9519C31.1488 92.9077 31.5731 93.0013 31.9368 93.2184C32.565 93.6582 32.9137 94.9147 32.9828 96.9879C32.9806 98.2578 32.8288 99.523 32.5305 100.757C32.039 102.901 31.3448 104.993 30.4573 107.005C29.5296 109.166 28.3867 111.227 27.0459 113.159C25.7396 115.072 24.1063 116.741 22.221 118.087C21.5908 115.045 21.5524 111.909 22.1079 108.852ZM52.2635 123.233C51.1044 129.895 47.4763 133.278 43.2922 131.931C43.3809 132.06 43.489 132.174 43.6126 132.27C42.7727 131.697 42.1179 130.891 41.7279 129.952C40.9112 128.18 40.9112 125.937 41.7279 123.223C42.4417 120.83 43.5989 118.592 45.1393 116.627C46.4406 115.028 47.9863 113.644 49.7192 112.527C50.6615 111.915 51.651 111.359 52.6593 110.831C52.8895 114.969 52.754 119.119 52.2541 123.233H52.2635ZM132.741 95.3105C132.44 96.9879 132.053 98.9009 131.582 101.049C131.137 103.096 130.557 105.11 129.848 107.081C129.393 108.581 128.585 109.951 127.492 111.076C127.242 111.313 126.933 111.479 126.597 111.557C123.054 110.351 123.845 103.669 124.477 100.946C125.476 96.6392 127.521 92.2855 130.329 91.9745L130.791 92.1065C131.629 92.3986 132.28 93.4635 132.741 95.3105ZM176.09 87.602C175.483 88.0485 175.056 88.6967 174.884 89.4302C174.469 90.9285 174.384 91.9557 174.648 92.5305C174.912 93.1054 175.317 93.1902 175.854 92.7944C176.583 92.0682 177.089 91.1498 177.315 90.1463C177.654 88.8899 177.654 88.07 177.315 87.6868C177.023 87.3004 176.608 87.2721 176.09 87.6397V87.602ZM197.463 102.397C197.218 102.454 197.01 102.68 196.813 103.085C196.108 104.717 195.178 106.243 194.051 107.618C193.012 108.966 191.734 110.112 190.282 111.001C189.768 111.369 189.166 111.595 188.537 111.654C187.908 111.714 187.275 111.605 186.701 111.34C185.627 110.794 184.86 109.283 184.402 106.807C184.285 106.05 184.225 105.284 184.223 104.517C184.226 103.686 184.276 102.855 184.373 102.03C184.567 100.807 184.828 99.5954 185.155 98.4014C185.55 96.8494 186.106 95.3428 186.814 93.9064C187.021 93.3425 187.344 92.8286 187.763 92.3983C188.182 91.968 188.687 91.6309 189.245 91.4091C189.465 91.3504 189.697 91.3616 189.91 91.4409C190.123 91.5203 190.305 91.664 190.433 91.852C190.641 92.2414 190.724 92.686 190.668 93.1242C190.631 93.6896 190.725 93.9818 190.951 94.0006C191.187 94.0006 191.413 93.8593 191.639 93.52C191.884 93.1374 191.978 92.6772 191.903 92.229C191.867 91.9043 191.764 91.5905 191.602 91.3069C191.44 91.0233 191.222 90.7759 190.96 90.5798C190.521 90.2686 189.991 90.1097 189.453 90.1275C186.729 89.7317 181.688 91.7107 180.444 99.5511C180.086 101.659 180.029 103.807 180.274 105.931C179.916 106.638 179.53 107.363 179.124 108.108C178.721 108.863 178.268 109.59 177.767 110.285C175.449 111.444 175.355 107.571 175.817 104.63C176.344 101.21 176.505 98.4014 176.759 96.9219C177.098 95.2068 177.23 92.9923 174.403 94.2456H174.337C174.154 94.2527 173.978 94.3176 173.834 94.4311C173.69 94.5445 173.586 94.7006 173.536 94.877C173.216 96.234 172.902 98.0182 172.594 100.23C172.443 101.426 172.321 102.633 172.245 103.839C171.802 104.922 171.286 105.974 170.7 106.986C169.943 108.348 169.026 109.614 167.967 110.756C167.644 111.095 167.272 111.384 166.864 111.613C163.283 112.386 164.669 102.19 165.262 96.234C165.667 92.1442 166.28 87.4418 166.864 83.5969C168.683 84.087 174.648 85.9057 179.398 85.8774C185.297 85.8774 186.871 81.9007 187.087 80.0725C187.559 76.1805 187.719 69.2071 182.63 60.8766C179.351 55.4863 174.95 50.3692 165.752 46.7411C151.683 41.087 151.249 36.7898 150.674 31.0979C150.1 25.406 149.44 21.6178 145.275 20.0911C141.109 18.5645 136.662 20.0063 132.741 21.3727C132.496 20.7037 131.61 20.534 128.633 20.289C125.655 20.044 123.657 20.3833 119.294 22.1078C114.931 23.8323 107.043 25.2647 103.782 28.0164C100.522 30.7681 99.1932 30.9943 98.1943 31.1733C97.1954 31.3524 94.8112 31.4466 92.9547 31.5785C91.0983 31.7105 89.9015 31.946 89.7696 30.9283C89.6376 29.9105 91.4658 29.3357 93.3977 29.3357C94.3635 29.2942 95.3172 29.1035 96.2247 28.7703C96.3284 28.9211 96.2907 30.2686 98.2979 30.3535C100.305 30.4383 101.511 27.7525 100.729 26.4144C99.9471 25.0762 98.3639 25.849 98.4487 25.783C98.7372 24.4088 98.616 22.9802 98.1 21.6743C97.7949 21.0606 97.3634 20.5183 96.834 20.0831C96.3046 19.6479 95.6891 19.3294 95.0279 19.1488C93.77 18.8687 92.4788 18.7672 91.1925 18.8472C90.2062 18.8496 89.2282 18.6674 88.3089 18.3101C87.4702 17.9802 87.3665 18.1499 87.3665 18.6305C87.3665 19.1111 87.6115 19.4032 86.5655 19.8273C85.5195 20.2513 84.3981 21.1183 84.596 22.1549C84.7939 23.1915 85.4347 24.5862 84.9164 25.5474C84.3981 26.5086 82.0893 30.5985 81.2789 30.2592C80.4684 29.92 81.6181 28.2143 82.0893 26.9609C82.4318 25.6682 82.3958 24.3042 81.9856 23.0313C81.7542 21.5229 81.7542 19.9881 81.9856 18.4797C82.1553 16.4065 82.6547 13.2213 82.6547 13.2213C85.2746 10.2994 88.1096 7.57773 91.136 5.07929C94.4625 2.38413 94.7452 4.33482 98.0341 3.35476C101.323 2.37471 102.868 0.640761 102.652 0.329781C102.435 0.0188017 101.615 -0.226213 98.8822 0.329781C96.9794 0.692518 95.04 0.825401 93.1055 0.725574C91.2208 0.725574 91.2773 2.2522 87.8471 4.14635C84.8127 5.78606 82.061 7.1996 79.7617 10.0173C77.4623 12.8349 76.8686 17.5562 76.8027 23.8417C76.7367 30.1273 76.1713 29.8823 75.3326 32.0968C74.4939 34.3114 71.8647 37.4494 71.8364 39.0138C71.8956 40.1675 72.2993 41.277 72.9955 42.1989C73.2971 42.7549 73.1651 48.8991 73.6834 50.9723C74.2017 53.0455 77.1231 56.1836 76.5105 56.2307C74.8063 56.3312 73.0977 56.3312 71.3935 56.2307C68.067 56.1082 63.553 55.948 62.4316 55.3826C61.7159 54.9601 60.8835 54.7784 60.0569 54.8643C58.0361 55.0564 56.0026 55.0753 53.9786 54.9208C49.8888 54.7795 44.9791 54.6947 41.3039 54.1858C37.6286 53.6769 37.5344 53.1021 34.1984 52.5084C31.9085 52.0261 29.5432 52.0261 27.2532 52.5084C24.4261 52.8853 22.2493 53.4508 21.4671 55.1376C21.3258 55.4674 21.4671 56.014 22.777 55.7595C23.1257 55.6936 23.6346 55.2224 24.1811 55.4203C24.7277 55.6182 25.5099 55.0999 27.9977 55.5899C30.4855 56.0799 29.6468 57.5406 31.3242 58.5961C33.0016 59.6515 34.2738 57.9647 35.8193 57.4087C37.3648 56.8527 37.9208 56.9752 44.1969 59.6703C50.473 62.3655 53.5357 60.4431 56.8905 60.7352C60.2453 61.0273 59.7176 62.6199 66.8325 64.6743C72.3305 66.221 78.1082 66.4981 83.729 65.4847C87.4985 64.891 89.2795 65.9465 92.3705 66.9925C95.4614 68.0385 98.2131 67.1244 100.475 66.8606C102.736 66.5967 109.38 65.1832 113.875 64.467C118.37 63.7508 119.69 62.6576 124.175 61.0839C128.661 59.5101 130.772 58.8411 133.599 58.7939C136.426 58.7468 137.802 59.3123 140.469 59.5101C143.136 59.708 144.238 58.7186 146.226 58.6903C148.215 58.662 150.938 55.7407 149.553 54.9208C149.264 54.7871 148.939 54.7497 148.627 54.8142C148.315 54.8786 148.032 55.0415 147.819 55.2789C146.694 55.8421 145.434 56.0772 144.182 55.9574C141.081 55.8067 141.204 53.4131 139.997 52.6309C139.767 52.4957 139.51 52.4112 139.244 52.383C138.978 52.3548 138.709 52.3835 138.455 52.4673C138.201 52.5511 137.967 52.688 137.77 52.869C137.573 53.0499 137.417 53.2707 137.312 53.5167C137.095 54.2329 137.142 55.7124 134.654 55.9292C132.166 56.1459 131.083 55.3355 125.231 54.9868C119.379 54.6381 118.54 57.55 115.449 57.6725C112.358 57.795 109.644 56.9563 105.573 56.8904C101.502 56.8244 97.7231 58.1343 97.0917 58.0024C96.4603 57.8704 96.4038 55.6088 94.0667 54.0633C91.7297 52.5178 88.3278 52.6497 86.9802 50.2938C85.6326 47.9379 87.1404 44.1873 92.983 39.2305C98.8257 34.2737 104.131 33.2842 110.417 30.2781C116.702 27.2719 118.172 23.3328 123.713 23.6815C129.255 24.0302 130.555 22.8899 130.555 22.8899C133.146 22.6261 135.606 20.1665 141.458 20.289C146.839 20.8262 148.875 22.1737 149.468 31.3241C150.062 40.4744 153.238 42.5476 165.13 47.8814C183.035 55.8915 186.597 73.8341 185.391 79.4317C184.863 84.1435 180.679 84.2754 178.55 84.2C177.195 84.0973 175.85 83.8925 174.526 83.5875C172.198 83.0692 170.238 82.6451 167.156 81.7028C167.496 79.5636 167.825 77.8297 168.099 76.8119C168.806 73.8906 169.71 69.9044 165.856 72.609C165.468 72.9185 165.103 73.2555 164.763 73.6173C163.921 74.7327 163.336 76.0196 163.048 77.3868C162.812 78.3291 162.605 79.3469 162.416 80.4023C159.939 79.7323 157.421 79.2254 154.877 78.8851C152.876 78.5551 150.827 78.6514 148.865 79.1678C148.072 79.3942 147.348 79.8129 146.756 80.3866C146.164 80.9604 145.723 81.6715 145.473 82.4567C145.185 83.2134 145.101 84.032 145.228 84.8314C145.378 85.3403 145.586 85.5853 145.868 85.557C146.151 85.5288 146.321 85.2366 146.368 84.6712C146.361 83.9386 146.528 83.2148 146.856 82.5595C147.184 81.9041 147.662 81.336 148.253 80.9018C149.48 80.1836 150.896 79.855 152.314 79.9594C154.014 80.0268 155.701 80.2796 157.346 80.7133C159.08 81.1656 160.663 81.6557 162.058 82.1268C161.691 84.1246 161.37 86.2261 161.116 88.403C160.534 92.9429 160.282 97.5191 160.362 102.095C158.098 101.997 155.852 102.525 153.869 103.622C149.732 98.9103 148.215 96.1869 147.81 92.7944C147.414 89.0815 150.778 86.9706 152.719 87.602L153.247 87.7527C153.705 87.953 154.13 88.2197 154.51 88.5443C155.46 89.3904 156.185 90.4589 156.621 91.6541C156.922 92.2667 157.196 92.4928 157.45 92.3138C157.704 92.1347 157.761 91.6918 157.62 90.9662C157.322 89.96 156.789 89.0393 156.065 88.2805C155.013 87.0772 153.559 86.297 151.975 86.0848C150.917 85.9531 149.844 86.0471 148.826 86.3606C147.807 86.6741 146.867 87.2 146.066 87.9035C144.532 89.2421 143.576 91.1236 143.399 93.1525C143.204 95.5074 143.874 97.8529 145.284 99.749C146.387 101.266 147.791 103 149.478 104.951L150.477 106.138C149.267 107.184 148.227 108.411 147.395 109.776C145.934 112.254 145.369 114.318 145.718 115.948C145.848 116.706 146.144 117.425 146.584 118.055C147.023 118.685 147.596 119.211 148.262 119.595C149.515 120.308 150.939 120.664 152.38 120.622C153.378 120.637 154.371 120.488 155.32 120.179H155.424C155.613 120.123 155.798 120.057 155.98 119.982C156.804 119.651 157.533 119.12 158.1 118.436C161.681 114.874 158.826 109.22 155.047 105.083L154.679 104.687C155.688 104.16 156.772 103.791 157.893 103.594C158.726 103.442 159.574 103.397 160.418 103.462C160.418 104.225 160.503 104.979 160.569 105.705C160.727 107.315 161.091 108.899 161.653 110.417C162.445 112.301 163.509 113.319 164.848 113.47C166.186 113.621 167.53 113.027 168.881 111.689C169.869 110.634 170.738 109.475 171.472 108.23C171.708 107.834 171.934 107.439 172.16 107.033C172.16 107.949 172.255 108.861 172.443 109.757C172.613 110.731 172.986 111.659 173.536 112.48C173.766 112.842 174.099 113.125 174.493 113.293C174.886 113.461 175.322 113.507 175.741 113.423C176.697 113.168 177.544 112.609 178.154 111.83C178.944 110.894 179.639 109.88 180.227 108.805C180.378 108.541 180.519 108.277 180.651 108.023C181.593 111.397 183.695 113.517 186.823 113.489C187.65 113.544 188.479 113.422 189.255 113.131C191.045 112.447 192.657 111.364 193.967 109.964C195.438 108.491 196.621 106.756 197.453 104.847C197.746 104.262 197.894 103.616 197.887 102.962C197.896 102.51 197.698 102.341 197.463 102.397ZM155.151 112.056C155.77 112.931 156.206 113.921 156.432 114.968C156.563 115.528 156.552 116.111 156.401 116.666C156.249 117.22 155.962 117.728 155.565 118.144C155.137 118.554 154.632 118.876 154.079 119.091C153.526 119.307 152.936 119.41 152.342 119.397C151.118 119.412 149.914 119.086 148.865 118.455C148.335 118.151 147.884 117.728 147.545 117.219C147.207 116.71 146.991 116.13 146.914 115.524C146.688 114.186 147.188 112.471 148.413 110.379C149.187 109.132 150.139 108.004 151.24 107.033C152.757 108.805 154.048 110.473 155.151 112.056ZM214.736 102.369C214.4 102.188 214.025 102.094 213.643 102.095C211.54 101.999 209.448 102.454 207.574 103.415L207.48 103.33C201.826 98.3166 200.573 96.055 201.449 91.6918C201.536 91.0008 201.793 90.3421 202.197 89.7749C202.602 89.2076 203.14 88.7494 203.765 88.4413C204.389 88.1331 205.081 87.9847 205.777 88.0093C206.473 88.0338 207.152 88.2306 207.753 88.582C208.703 89.4281 209.429 90.4966 209.864 91.6918C210.156 92.3044 210.439 92.5305 210.694 92.3515C210.948 92.1724 211.004 91.7295 210.863 91.0039C210.562 89.9992 210.03 89.0792 209.308 88.3182C208.256 87.1149 206.803 86.3347 205.218 86.1225C204.176 85.9875 203.117 86.0721 202.109 86.3707C201.101 86.6693 200.167 87.1754 199.366 87.8564C197.832 89.195 196.876 91.0765 196.699 93.1054C196.507 95.46 197.177 97.8042 198.584 99.7019C199.696 101.222 201.097 102.956 202.787 104.904L203.786 106.091C202.586 107.126 201.553 108.341 200.723 109.691C199.263 112.169 198.697 114.233 199.046 115.863C199.177 116.621 199.472 117.34 199.912 117.97C200.352 118.6 200.925 119.126 201.59 119.51C202.844 120.243 204.276 120.615 205.727 120.585C206.924 120.601 208.112 120.38 209.223 119.934V120.01L209.695 119.755C210.081 119.568 210.444 119.337 210.778 119.067C216.904 114.723 212.983 108.551 208.63 104.329C209.472 103.95 210.359 103.678 211.268 103.518C212.291 103.329 213.338 103.303 214.369 103.443C214.447 103.448 214.525 103.437 214.598 103.409C214.671 103.381 214.738 103.338 214.793 103.283C214.925 103.171 215.018 103.019 215.057 102.849C215.05 102.68 214.944 102.52 214.736 102.369ZM209.789 114.893C209.92 115.452 209.909 116.036 209.757 116.59C209.606 117.145 209.319 117.653 208.922 118.069C208.493 118.479 207.988 118.801 207.435 119.016C206.882 119.231 206.292 119.335 205.699 119.322C204.475 119.337 203.271 119.01 202.222 118.38C201.691 118.076 201.238 117.654 200.9 117.145C200.561 116.636 200.346 116.055 200.271 115.449C200.045 114.111 200.544 112.396 201.769 110.303C202.543 109.056 203.496 107.929 204.596 106.958C206.076 108.692 207.367 110.36 208.47 111.943C209.105 112.827 209.554 113.83 209.789 114.893Z" fill="url(#paint0_linear_4_682)"/>
</g>
<defs>
<linearGradient id="paint0_linear_4_682" x1="42.9341" y1="33.3879" x2="169.767" y2="160.22" gradientUnits="userSpaceOnUse">
<stop stop-color="#B31180"/>
<stop offset="0.17" stop-color="#A21581"/>
<stop offset="0.47" stop-color="#8B1C81"/>
<stop offset="0.76" stop-color="#7D2082"/>
<stop offset="1" stop-color="#782182"/>
</linearGradient>
<clipPath id="clip0_4_682">
<rect width="215" height="134.362" fill="white"/>
</clipPath>
</defs>
</svg>
