<svg width="18" height="19" viewBox="0 0 18 19" fill="none" xmlns="http://www.w3.org/2000/svg">
<path d="M15.3633 0.927734H2.63672C1.18295 0.927734 0 2.10716 0 3.55659V16.2452C0 17.6946 1.18295 18.874 2.63672 18.874H15.3633C16.817 18.874 18 17.6946 18 16.2452V3.55659C18 2.10716 16.817 0.927734 15.3633 0.927734ZM9.03516 14.5978C6.41808 14.5978 4.28906 12.4751 4.28906 9.86583C4.28906 7.25656 6.41808 5.1339 9.03516 5.1339C11.6522 5.1339 13.7812 7.25656 13.7812 9.86583C13.7812 12.4751 11.6522 14.5978 9.03516 14.5978ZM14.3086 6.18544C13.4363 6.18544 12.7266 5.47784 12.7266 4.60813C12.7266 3.73841 13.4363 3.03082 14.3086 3.03082C15.1809 3.03082 15.8906 3.73841 15.8906 4.60813C15.8906 5.47784 15.1809 6.18544 14.3086 6.18544Z" fill="white"/>
<path d="M14.3086 4.08203C14.0176 4.08203 13.7812 4.31772 13.7812 4.60791C13.7812 4.8981 14.0176 5.13379 14.3086 5.13379C14.5996 5.13379 14.8359 4.8981 14.8359 4.60791C14.8359 4.31772 14.5996 4.08203 14.3086 4.08203Z" fill="white"/>
<path d="M9.03491 6.18555C6.99969 6.18555 5.34351 7.8367 5.34351 9.86572C5.34351 11.8947 6.99969 13.5459 9.03491 13.5459C11.0701 13.5459 12.7263 11.8947 12.7263 9.86572C12.7263 7.8367 11.0701 6.18555 9.03491 6.18555Z" fill="white"/>
</svg>
