<svg width="18" height="18" viewBox="0 0 18 18" fill="none" xmlns="http://www.w3.org/2000/svg">
<path d="M15.3633 0H2.63672C1.18295 0 0 1.18295 0 2.63672V15.3633C0 16.817 1.18295 18 2.63672 18H15.3633C16.817 18 18 16.817 18 15.3633V2.63672C18 1.18295 16.817 0 15.3633 0ZM9.03516 13.7109C6.41808 13.7109 4.28906 11.5819 4.28906 8.96484C4.28906 6.34776 6.41808 4.21875 9.03516 4.21875C11.6522 4.21875 13.7812 6.34776 13.7812 8.96484C13.7812 11.5819 11.6522 13.7109 9.03516 13.7109ZM14.3086 5.27344C13.4363 5.27344 12.7266 4.56372 12.7266 3.69141C12.7266 2.81909 13.4363 2.10938 14.3086 2.10938C15.1809 2.10938 15.8906 2.81909 15.8906 3.69141C15.8906 4.56372 15.1809 5.27344 14.3086 5.27344Z" fill="#9D8AE6"/>
<path d="M14.3086 3.16382C14.0176 3.16382 13.7812 3.40016 13.7812 3.69116C13.7812 3.98216 14.0176 4.21851 14.3086 4.21851C14.5996 4.21851 14.8359 3.98216 14.8359 3.69116C14.8359 3.40016 14.5996 3.16382 14.3086 3.16382Z" fill="#9D8AE6"/>
<path d="M9.03516 5.27319C6.99994 5.27319 5.34375 6.92938 5.34375 8.9646C5.34375 10.9998 6.99994 12.656 9.03516 12.656C11.0704 12.656 12.7266 10.9998 12.7266 8.9646C12.7266 6.92938 11.0704 5.27319 9.03516 5.27319Z" fill="#9D8AE6"/>
</svg>
