<svg width="25" height="16" viewBox="0 0 25 16" fill="none" xmlns="http://www.w3.org/2000/svg">
<path d="M24.7772 13.6076C24.71 13.4954 24.2943 12.5949 22.2942 10.7439C20.2003 8.8057 20.4815 9.12043 23.0036 5.76908C24.5397 3.72804 25.1538 2.48161 24.9616 1.94876C24.7787 1.44084 23.649 1.57483 23.649 1.57483L19.8924 1.59664C19.8924 1.59664 19.6143 1.55925 19.4065 1.68233C19.2049 1.80386 19.0752 2.08431 19.0752 2.08431C19.0752 2.08431 18.4798 3.66416 17.686 5.00719C16.0125 7.84127 15.3421 7.99085 15.0686 7.81479C14.4327 7.40502 14.592 6.16638 14.592 5.28764C14.592 2.54081 15.0093 1.39565 13.7779 1.09962C13.3685 1.00147 13.0685 0.936029 12.0231 0.925123C10.6824 0.911101 9.54636 0.929797 8.90413 1.24296C8.47597 1.45174 8.14626 1.9176 8.34784 1.94408C8.59629 1.9768 9.15883 2.09521 9.45729 2.5003C9.84326 3.02225 9.8292 4.19701 9.8292 4.19701C9.8292 4.19701 10.0511 7.42995 9.31197 7.83193C8.80412 8.1077 8.10876 7.54525 6.61646 4.97292C5.85234 3.65637 5.27417 2.1996 5.27417 2.1996C5.27417 2.1996 5.16323 1.9285 4.96478 1.7836C4.72413 1.60755 4.38661 1.55146 4.38661 1.55146L0.814471 1.57327C0.814471 1.57327 0.278494 1.58885 0.0816048 1.821C-0.093408 2.02822 0.0675413 2.45512 0.0675413 2.45512C0.0675413 2.45512 2.86462 8.97864 6.03048 12.2677C8.93538 15.2825 12.2325 15.0846 12.2325 15.0846H13.7264C13.7264 15.0846 14.178 15.0348 14.4077 14.787C14.6202 14.5596 14.6124 14.1326 14.6124 14.1326C14.6124 14.1326 14.5827 12.1337 15.514 11.8392C16.4312 11.5494 17.6095 13.7712 18.858 14.6265C19.8018 15.2731 20.519 15.1314 20.519 15.1314L23.8584 15.0846C23.8584 15.0846 25.6054 14.9771 24.7772 13.6076Z" fill="white"/>
</svg>
