<svg width="25" height="15" viewBox="0 0 25 15" fill="none" xmlns="http://www.w3.org/2000/svg">
<path d="M24.7772 12.723C24.71 12.6104 24.2943 11.7073 22.2942 9.85087C20.2003 7.90697 20.4815 8.22262 23.0036 4.86143C24.5397 2.81441 25.1538 1.56431 24.9616 1.0299C24.7787 0.520484 23.649 0.654869 23.649 0.654869L19.8924 0.676745C19.8924 0.676745 19.6143 0.639243 19.4065 0.762689C19.2049 0.884574 19.0752 1.16584 19.0752 1.16584C19.0752 1.16584 18.4798 2.75034 17.686 4.09731C16.0125 6.93971 15.3421 7.08973 15.0686 6.91315C14.4327 6.50218 14.592 5.2599 14.592 4.37858C14.592 1.62369 15.0093 0.475168 13.7779 0.178271C13.3685 0.0798258 13.0685 0.0141959 12.0231 0.00325761C10.6824 -0.0108059 9.54636 0.00794545 8.90413 0.322031C8.47597 0.531422 8.14626 0.998645 8.34784 1.02521C8.59629 1.05802 9.15883 1.17678 9.45729 1.58306C9.84326 2.10654 9.8292 3.28475 9.8292 3.28475C9.8292 3.28475 10.0511 6.52718 9.31197 6.93034C8.80412 7.20692 8.10876 6.64282 6.61646 4.06294C5.85234 2.74253 5.27417 1.28148 5.27417 1.28148C5.27417 1.28148 5.16323 1.00958 4.96478 0.86426C4.72413 0.687684 4.38661 0.63143 4.38661 0.63143L0.814471 0.653306C0.814471 0.653306 0.278494 0.668933 0.0816048 0.901763C-0.093408 1.10959 0.0675413 1.53775 0.0675413 1.53775C0.0675413 1.53775 2.86462 8.08042 6.03048 11.3791C8.93538 14.4028 12.2325 14.2043 12.2325 14.2043H13.7264C13.7264 14.2043 14.178 14.1543 14.4077 13.9059C14.6202 13.6777 14.6124 13.2496 14.6124 13.2496C14.6124 13.2496 14.5827 11.2447 15.514 10.9494C16.4312 10.6587 17.6095 12.887 18.858 13.7449C19.8018 14.3934 20.519 14.2512 20.519 14.2512L23.8584 14.2043C23.8584 14.2043 25.6054 14.0965 24.7772 12.723Z" fill="#9D8AE6"/>
</svg>
